<?xml version="1.0" encoding="utf-8"?>
<svg xmlns="http://www.w3.org/2000/svg" viewBox="0 0 100 100" width="500" height="500">
  <g>
    <circle cx="14" cy="29" r="2" fill="#ee3e54" />
    <circle cx="78" cy="13" r="1" fill="#f1bc19" />
    <circle cx="51" cy="50" r="37" fill="#fce0a2" />
    <circle cx="84" cy="15" r="4" fill="#f1bc19" />
    <circle cx="88" cy="24" r="2" fill="#ee3e54" />
    <circle cx="82" cy="76" r="2" fill="#fbcd59" />
    <circle cx="16" cy="63" r="4" fill="#fbcd59" />
    <circle cx="26" cy="87" r="2" fill="#ee3e54" />
    <circle cx="20.5" cy="54.5" r="2.5" fill="#fff" />
    <circle cx="22" cy="67" r="1" fill="#f1bc19" />
    <circle cx="81" cy="34" r="1" fill="#fff" />
    <g>
      <path fill="#fdfcef" d="M66.719,73H35.281C31.26,73,28,69.74,28,65.719V34.281C28,30.26,31.26,27,35.281,27h31.438 C70.74,27,74,30.26,74,34.281v31.438C74,69.74,70.74,73,66.719,73z" />
    </g>
    <g>
      <path fill="#472b29" d="M67.719,27.4c3.243,0,5.881,2.638,5.881,5.881v33.438c0,3.243-2.638,5.881-5.881,5.881H34.281 c-3.243,0-5.881-2.638-5.881-5.881V33.281c0-3.243,2.638-5.881,5.881-5.881H67.719 M67.719,26H34.281C30.26,26,27,29.26,27,33.281 v33.438C27,70.74,30.26,74,34.281,74h33.438C71.74,74,75,70.74,75,66.719V33.281C75,29.26,71.74,26,67.719,26L67.719,26z" />
    </g>
    <g>
      <path fill="#472b29" d="M31.5,40.167c-0.276,0-0.5-0.224-0.5-0.5v-4.333C31,32.393,33.393,30,36.333,30h14 c0.276,0,0.5,0.224,0.5,0.5s-0.224,0.5-0.5,0.5h-14C33.944,31,32,32.944,32,35.333v4.333C32,39.943,31.776,40.167,31.5,40.167z" />
    </g>
    <g>
      <path fill="#472b29" d="M42.583,70h-6.25C33.393,70,31,67.607,31,64.667V44.333c0-0.276,0.224-0.5,0.5-0.5 s0.5,0.224,0.5,0.5v20.333C32,67.056,33.944,69,36.333,69h6.25c0.276,0,0.5,0.224,0.5,0.5S42.86,70,42.583,70z" />
    </g>
    <g>
      <path fill="#472b29" d="M65.667,70h-19.75c-0.276,0-0.5-0.224-0.5-0.5s0.224-0.5,0.5-0.5h19.75 C68.056,69,70,67.056,70,64.667V48.583c0-0.276,0.224-0.5,0.5-0.5s0.5,0.224,0.5,0.5v16.083C71,67.607,68.607,70,65.667,70z" />
    </g>
    <g>
      <path fill="#ee3e54" d="M59.767,34.912c-0.435,0.407-1.099,0.407-1.534,0C54.537,31.458,49,33.382,49,38.47 c0,4.421,3.436,9.34,9.481,12.467c0.321,0.166,0.716,0.166,1.037,0C65.564,47.81,69,42.89,69,38.47 C69,33.382,63.463,31.458,59.767,34.912z" />
      <path fill="#472b29" d="M59,51.562c-0.257,0-0.514-0.061-0.748-0.182C52.328,48.317,48.5,43.249,48.5,38.47 c0-2.452,1.227-4.448,3.281-5.34c2.223-0.965,4.826-0.422,6.793,1.417c0.243,0.227,0.608,0.227,0.852,0l0,0 c1.969-1.839,4.57-2.381,6.793-1.417c2.054,0.892,3.281,2.888,3.281,5.34c0,4.779-3.828,9.847-9.752,12.911 C59.514,51.502,59.257,51.562,59,51.562z M54.048,33.661c-0.639,0-1.271,0.127-1.869,0.386c-1.678,0.728-2.679,2.382-2.679,4.423 c0,4.41,3.616,9.129,9.211,12.022c0.179,0.092,0.399,0.092,0.578,0c5.595-2.894,9.211-7.613,9.211-12.022 c0-2.041-1.001-3.695-2.679-4.423c-1.851-0.804-4.041-0.333-5.712,1.23c-0.632,0.591-1.585,0.591-2.217,0 C56.759,34.219,55.39,33.661,54.048,33.661z" />
    </g>
  </g>
</svg>