<?xml version="1.0" encoding="utf-8"?>
<svg xmlns="http://www.w3.org/2000/svg" viewBox="0 0 100 100" width="400" height="400">
  <path fill="#78a2d2" d="M59,35c16.016,0,29,10.074,29,22.5c0,6.408-3.459,12.186-9,16.284c0,0,0,8.216,3,12.216 c-8,0-13-5-14.573-6.968C64.76,79.659,61.932,80,59,80c-16.016,0-29-10.074-29-22.5C30,45.074,42.984,35,59,35z" />
  <path fill="none" stroke="#1f212b" stroke-linecap="round" stroke-linejoin="round" stroke-width="2" d="M59,35 c16.016,0,29,10.074,29,22.5c0,6.408-3.459,12.186-9,16.284c0,0,0,8.216,3,12.216c-8,0-13-5-14.573-6.968 C64.76,79.659,61.932,80,59,80c-16.016,0-29-10.074-29-22.5C30,45.074,42.984,35,59,35z" />
  <path fill="none" stroke="#1f212b" stroke-linecap="round" d="M35.469 62.5c2.957 7.499 12.383 13 23.531 13 .844 0 1.678-.031 2.5-.093M80.5 66.122c1.911-2.562 3-5.5 3-8.622 0-5.937-3.947-11.195-10-14.473M45.5 50.5L60.5 50.5M43.5 55.5L49.5 55.5M54.5 60.5L74.5 60.5M45.5 65.5L72.5 65.5M63.5 55.5L74.5 55.5M68.5 50.5L72.5 50.5" />
  <path fill="#eddc67" d="M41,14c-16.016,0-29,10.074-29,22.5c0,6.408,3.459,12.186,9,16.284c0,0,0,8.216-3,12.216 c8,0,13-5,14.573-6.968C35.24,58.659,38.068,59,41,59c16.016,0,29-10.074,29-22.5C70,24.074,57.016,14,41,14z" />
  <path fill="none" stroke="#1f212b" stroke-linecap="round" stroke-linejoin="round" stroke-width="2" d="M41,14 c-16.016,0-29,10.074-29,22.5c0,6.408,3.459,12.186,9,16.284c0,0,0,8.216-3,12.216c8,0,13-5,14.573-6.968 C35.24,58.659,38.068,59,41,59c16.016,0,29-10.074,29-22.5C70,24.074,57.016,14,41,14z" />
  <path fill="none" stroke="#1f212b" stroke-linecap="round" d="M55.5 22.002C51.437 19.803 46.423 18.5 41 18.5c-13.51 0-24.5 8.075-24.5 18 0 3.122 1.089 6.06 3 8.622M38.5 54.407c.822.062 1.656.093 2.5.093 13.51 0 24.5-8.075 24.5-18 0-1.764-.353-3.468-1-5.08M58.5 23.92c-.325-.244-.657-.483-1-.713M62.5 27.878c-.59-.791-1.26-1.545-2-2.259M27.5 29.5L42.5 29.5M25.5 34.5L31.5 34.5M25.5 39.5L56.5 39.5M27.5 44.5L41.5 44.5M35.5 34.5L56.5 34.5M45.5 29.5L54.5 29.5" />
</svg>