<?xml version="1.0" encoding="utf-8"?>
<svg xmlns="http://www.w3.org/2000/svg" viewBox="0 0 100 100" width="400" height="400">
  <path fill="#ccac94" d="M28.665,54.344C28.567,54.217,28,53.588,28,53.588v-3.647C28,43.784,23.053,39,17.029,39 c-0.01,0-0.019,0.001-0.029,0.001S16.981,39,16.971,39C10.947,39,6,43.784,6,49.941v3.647c0,0-0.567,0.629-0.665,0.756 c-0.163,0.215-0.318,0.541-0.334,0.99c-0.01,0.271,0.642,3.695,0.831,4.283C6.04,60.277,6.456,60.818,7,61v0.49 c0,1.216,0.569,2.394,0.993,3.039c1.272,1.937,3.199,3.355,5.007,4.263c0,0.07,0,0.138,0,0.208c0,2.031-2,2.75-2,2.75S12,76,17,76 s6-4.25,6-4.25S21,71,21,69c0-0.07,0-0.138,0-0.208c1.808-0.908,3.736-2.326,5.007-4.263C26.431,63.884,27,62.706,27,61.49V61 c0.544-0.182,0.96-0.723,1.168-1.384c0.189-0.588,0.841-4.012,0.831-4.283C28.982,54.885,28.828,54.559,28.665,54.344z" />
  <path fill="#8f9eb6" d="M32.974,78.641l-0.006-0.006c-0.517-2.292-2.155-4.188-4.378-5.054L23,71.75l-0.867-0.253 l-0.006,0.015C22.118,71.527,21.142,73,17,73c-4.134,0-5.115-1.467-5.125-1.482L11.857,71.5L11,71.75l-5.59,1.832 c-2.223,0.867-3.861,2.762-4.378,5.054l-0.006,0.006C0.873,79.34,1.413,80,2.141,80h29.719C32.587,80,33.127,79.34,32.974,78.641z" />
  <path fill="#565fa1" d="M7.5,56c-0.164,0-0.321-0.081-0.416-0.222C5.063,54.119,4,51.598,4,48.5 C4,42.355,9.042,36,17.479,36c4.334,0,6.794,1.912,7.666,3.66C27.977,40.089,30,43.733,30,48.5c0,5.075-3.08,7.315-3.211,7.408 c-0.153,0.109-0.358,0.122-0.523,0.033c-0.167-0.089-0.27-0.265-0.266-0.454c0.001-0.024,0.038-2.42-1.465-4.713 c-0.16-0.244-0.38-0.505-0.621-0.795c-0.275-0.33-0.578-0.694-0.866-1.104c-0.577-0.823-0.838-1.553-0.955-2.272 C21.034,48.48,18.969,51,15.5,51c-0.192,0-0.367-0.11-0.45-0.283c-0.084-0.173-0.061-0.379,0.06-0.529 c1.054-1.317,1.598-2.799,1.798-3.845c-3.379,1.881-5.945,6.355-5.973,6.404c-0.076,0.136-0.213,0.228-0.367,0.249 c-0.152,0.019-0.31-0.032-0.421-0.142c-0.034-0.034-0.633-0.646-0.951-1.829C8.016,53.397,8,55.476,8,55.5 c0,0.22-0.144,0.415-0.354,0.479C7.598,55.993,7.549,56,7.5,56z" />
  <path fill="#1f212b" d="M16.971 70c-1.933 0-6.587-1.828-8.979-5.471l.836-.549c2.133 3.248 6.498 5.02 8.143 5.02 1.712 0 6.037-1.724 8.201-5.02l.836.549C23.616 68.172 18.925 70 16.971 70zM19.499 73.785c-.235 0-.445-.167-.49-.407-.052-.271.127-.533.398-.584 2.136-.403 2.715-1.274 2.721-1.283.124-.247.413-.331.661-.207.247.123.338.44.215.688-.007.013-.662 1.267-3.411 1.785C19.562 73.782 19.53 73.785 19.499 73.785zM17 74c-4.834 0-5.945-1.9-5.99-1.98-.134-.242-.047-.546.194-.681.234-.129.533-.052.672.181C11.909 71.567 12.917 73 17 73c.13 0 .252-.004.373-.008l.112-.004c.266-.02.506.209.515.485.008.276-.209.506-.485.515l-.108.003C17.273 73.996 17.142 74 17 74z" />
  <path fill="#1f212b" d="M16.971,70c-1.933,0-6.587-1.828-8.979-5.471l0.836-0.549c2.133,3.248,6.498,5.02,8.143,5.02 c1.712,0,6.037-1.724,8.201-5.02l0.836,0.549C23.616,68.172,18.925,70,16.971,70z" />
  <path fill="#1f212b" d="M31.859,81H2.141c-0.655,0-1.265-0.291-1.673-0.799C0.064,79.7-0.088,79.054,0.05,78.427 c0.008-0.034,0.017-0.068,0.028-0.102c0.614-2.582,2.466-4.699,4.969-5.675l5.642-1.851c0.019-0.008,1.058-0.415,1.272-1.425 c-1.538-0.852-3.447-2.229-4.805-4.297c-0.266-0.405-1.122-1.837-1.155-3.489c-0.503-0.376-0.897-0.956-1.123-1.673 c-0.17-0.527-0.894-4.142-0.876-4.619c0.027-0.739,0.307-1.255,0.536-1.558c0.109-0.142,0.72-0.821,0.72-0.821l1.484,1.34 c-0.001,0.002-0.509,0.563-0.617,0.698C6.076,55.021,6.008,55.153,6,55.37c0.032,0.341,0.629,3.458,0.784,3.939 c0.138,0.438,0.366,0.687,0.532,0.742C7.725,60.188,8,60.569,8,61v0.49c0,0.905,0.428,1.88,0.828,2.49 c1.01,1.537,2.65,2.929,4.621,3.919C13.787,68.069,14,68.415,14,68.793V69c0,2.703-2.553,3.652-2.662,3.691l-5.616,1.841 c-1.86,0.727-3.269,2.35-3.714,4.324c-0.001,0.002-0.001,0.005-0.002,0.007C2.047,78.973,2.082,79,2.141,79h29.719 c0.061,0,0.096-0.028,0.115-0.052l0.039-0.013c-0.008-0.026-0.016-0.053-0.021-0.079c-0.445-1.975-1.854-3.598-3.766-4.343 L22.688,72.7C22.541,72.646,20,71.662,20,69v-0.207c0-0.378,0.213-0.724,0.551-0.894c1.971-0.99,3.611-2.382,4.621-3.919 c0.4-0.61,0.828-1.585,0.828-2.49V61c0-0.431,0.275-0.813,0.684-0.948c0.166-0.056,0.395-0.305,0.53-0.735 c0.157-0.488,0.754-3.605,0.786-4.017c-0.008-0.146-0.076-0.278-0.132-0.352c-0.095-0.124-0.544-0.725-0.544-0.725l1.602-1.197 c0,0,0.436,0.583,0.532,0.708c0.233,0.308,0.513,0.823,0.54,1.562c0.018,0.479-0.706,4.093-0.878,4.627 c-0.225,0.712-0.618,1.29-1.121,1.666c-0.033,1.652-0.89,3.084-1.155,3.489c-1.357,2.066-3.266,3.444-4.804,4.297 c0.222,1.018,1.299,1.435,1.312,1.438l5.55,1.818c2.556,0.994,4.408,3.113,5.021,5.697c0.011,0.032,0.021,0.064,0.027,0.098 c0.138,0.627-0.015,1.273-0.418,1.774C33.124,80.709,32.515,81,31.859,81z" />
  <path fill="#1f212b" d="M19.499 73.785c-.235 0-.445-.167-.49-.407-.052-.271.127-.533.398-.584 2.136-.403 2.715-1.274 2.721-1.283.124-.247.413-.331.661-.207.247.123.338.44.215.688-.007.013-.662 1.267-3.411 1.785C19.562 73.782 19.53 73.785 19.499 73.785zM17 74c-4.834 0-5.945-1.9-5.99-1.98-.134-.242-.047-.546.194-.681.234-.129.533-.052.672.181C11.909 71.567 12.917 73 17 73c.13 0 .252-.004.373-.008l.112-.004c.266-.02.506.209.515.485.008.276-.209.506-.485.515l-.108.003C17.273 73.996 17.142 74 17 74zM7.5 56c-.164 0-.321-.081-.416-.222C5.063 54.118 4 51.598 4 48.5 4 42.355 9.042 36 17.479 36c4.334 0 6.794 1.912 7.667 3.659C27.977 40.089 30 43.733 30 48.5c0 5.075-3.08 7.315-3.211 7.408-.153.109-.358.122-.523.033-.167-.089-.27-.265-.266-.454.001-.023.038-2.42-1.465-4.713-.161-.245-.381-.507-.623-.798-.274-.329-.576-.692-.864-1.103-.577-.823-.838-1.554-.955-2.272C21.034 48.479 18.968 51 15.5 51c-.192 0-.367-.11-.45-.283-.084-.174-.061-.379.06-.529 1.054-1.316 1.598-2.799 1.798-3.845-3.379 1.882-5.945 6.355-5.973 6.404-.076.136-.213.228-.367.248-.152.02-.31-.031-.421-.142-.034-.034-.633-.646-.951-1.829C8.016 53.397 8 55.476 8 55.5c0 .22-.144.414-.354.479C7.598 55.993 7.549 56 7.5 56zM17.479 37C9.668 37 5 42.847 5 48.5c0 1.751.381 4.122 2.092 5.938.168-1.184.644-3.192 1.992-5.215.122-.184.348-.268.561-.201C9.855 49.085 10 49.279 10 49.5c0 .954.245 1.646.474 2.083.973-1.524 3.573-5.194 6.835-6.545.155-.064.331-.046.469.046C17.917 45.177 18 45.333 18 45.5c0 1.08-.464 2.81-1.468 4.407 3.76-.691 5.316-5.032 5.493-5.565.078-.233.305-.382.555-.335C22.822 44.046 23 44.255 23 44.5l-.001.288c-.004 1.314-.008 2.265.867 3.512.271.385.556.727.814 1.037.27.323.512.616.69.889 1.036 1.58 1.415 3.178 1.552 4.197C27.751 53.502 29 51.599 29 48.5c0-4.395-1.777-7.707-4.227-7.876-.19-.014-.356-.134-.429-.31C23.72 38.785 21.547 37 17.479 37z" />
  <g>
    <path fill="#a6785f" d="M94.665,54.344C94.567,54.217,94,53.588,94,53.588v-3.647C94,43.784,89.053,39,83.029,39 c-0.01,0-0.019,0.001-0.029,0.001S82.981,39,82.971,39C76.947,39,72,43.784,72,49.941v3.647c0,0-0.567,0.629-0.665,0.756 c-0.163,0.215-0.318,0.541-0.334,0.99c-0.01,0.271,0.642,3.695,0.831,4.283C72.04,60.277,72.456,60.818,73,61v0.49 c0,1.216,0.569,2.394,0.993,3.039c1.272,1.937,3.199,3.355,5.007,4.263c0,0.07,0,0.138,0,0.208c0,2.031-2,2.75-2,2.75S78,76,83,76 s6-4.25,6-4.25S87,71,87,69c0-0.07,0-0.138,0-0.208c1.808-0.908,3.736-2.326,5.007-4.263C92.431,63.884,93,62.706,93,61.49V61 c0.544-0.182,0.96-0.723,1.168-1.384c0.189-0.588,0.841-4.012,0.831-4.283C94.982,54.885,94.828,54.559,94.665,54.344z" />
    <path fill="#8f9eb6" d="M98.974,78.641l-0.006-0.006c-0.517-2.292-2.155-4.188-4.378-5.054L89,71.75l-0.867-0.253 l-0.006,0.015C88.118,71.527,87.142,73,83,73c-4.134,0-5.115-1.467-5.125-1.482L77.857,71.5L77,71.75l-5.59,1.832 c-2.223,0.867-3.861,2.762-4.378,5.054l-0.006,0.006C66.873,79.34,67.413,80,68.141,80h29.719 C98.587,80,99.127,79.34,98.974,78.641z" />
    <path fill="#565fa1" d="M73.5,56c-0.164,0-0.321-0.081-0.416-0.222C71.063,54.119,70,51.598,70,48.5 C70,42.355,75.042,36,83.479,36c4.334,0,6.794,1.912,7.666,3.66C93.977,40.089,96,43.733,96,48.5c0,5.075-3.08,7.315-3.211,7.408 c-0.153,0.109-0.358,0.122-0.523,0.033c-0.167-0.089-0.27-0.265-0.266-0.454c0.001-0.024,0.038-2.42-1.465-4.713 c-0.16-0.244-0.38-0.505-0.621-0.795c-0.275-0.33-0.578-0.694-0.866-1.104c-0.577-0.823-0.838-1.553-0.955-2.272 C87.034,48.48,84.969,51,81.5,51c-0.192,0-0.367-0.11-0.45-0.283c-0.084-0.173-0.061-0.379,0.06-0.529 c1.054-1.317,1.598-2.799,1.798-3.845c-3.379,1.881-5.945,6.355-5.973,6.404c-0.076,0.136-0.213,0.228-0.367,0.249 c-0.152,0.019-0.31-0.032-0.421-0.142c-0.034-0.034-0.633-0.646-0.951-1.829C74.016,53.397,74,55.476,74,55.5 c0,0.22-0.144,0.415-0.354,0.479C73.598,55.993,73.549,56,73.5,56z" />
    <path fill="#1f212b" d="M82.971 70c-1.933 0-6.587-1.828-8.979-5.471l.836-.549c2.133 3.248 6.498 5.02 8.143 5.02 1.712 0 6.037-1.724 8.201-5.02l.836.549C89.616 68.172 84.925 70 82.971 70zM85.499 73.785c-.235 0-.445-.167-.49-.407-.052-.271.127-.533.398-.584 2.136-.403 2.715-1.274 2.721-1.283.125-.247.413-.331.661-.207.247.123.338.44.215.688-.007.013-.662 1.267-3.411 1.785C85.562 73.782 85.53 73.785 85.499 73.785zM83 74c-4.834 0-5.945-1.9-5.99-1.98-.134-.242-.047-.546.194-.681.234-.129.534-.052.672.181C77.909 71.567 78.917 73 83 73c.13 0 .252-.004.373-.008l.112-.004c.29-.02.507.209.515.485s-.209.506-.485.515l-.108.003C83.273 73.996 83.142 74 83 74z" />
    <path fill="#1f212b" d="M82.971,70c-1.933,0-6.587-1.828-8.979-5.471l0.836-0.549c2.133,3.248,6.498,5.02,8.143,5.02 c1.712,0,6.037-1.724,8.201-5.02l0.836,0.549C89.616,68.172,84.925,70,82.971,70z" />
    <path fill="#1f212b" d="M97.859,81H68.141c-0.655,0-1.265-0.291-1.673-0.799c-0.403-0.501-0.556-1.147-0.418-1.774 c0.008-0.034,0.017-0.068,0.028-0.102c0.614-2.582,2.466-4.699,4.969-5.675l5.642-1.851c0.019-0.008,1.058-0.415,1.272-1.425 c-1.538-0.852-3.447-2.229-4.805-4.297c-0.266-0.405-1.122-1.837-1.155-3.489c-0.503-0.376-0.897-0.956-1.123-1.673 c-0.17-0.527-0.894-4.142-0.876-4.619c0.027-0.739,0.307-1.255,0.536-1.558c0.109-0.142,0.72-0.821,0.72-0.821l1.484,1.34 c-0.001,0.002-0.509,0.563-0.617,0.698c-0.049,0.065-0.117,0.197-0.125,0.414c0.032,0.341,0.629,3.458,0.784,3.939 c0.138,0.438,0.366,0.687,0.532,0.742C73.725,60.188,74,60.569,74,61v0.49c0,0.905,0.428,1.88,0.828,2.49 c1.01,1.537,2.65,2.929,4.621,3.919C79.787,68.069,80,68.415,80,68.793V69c0,2.703-2.553,3.652-2.662,3.691l-5.616,1.841 c-1.86,0.727-3.269,2.35-3.714,4.324c-0.001,0.002-0.001,0.005-0.002,0.007C68.047,78.973,68.082,79,68.141,79h29.719 c0.061,0,0.096-0.028,0.115-0.052l0.039-0.013c-0.008-0.026-0.016-0.053-0.021-0.079c-0.445-1.975-1.854-3.598-3.766-4.343 L88.688,72.7C88.541,72.646,86,71.662,86,69v-0.207c0-0.378,0.213-0.724,0.551-0.894c1.971-0.99,3.611-2.382,4.621-3.919 c0.4-0.61,0.828-1.585,0.828-2.49V61c0-0.431,0.275-0.813,0.684-0.948c0.166-0.056,0.395-0.305,0.53-0.735 c0.157-0.488,0.754-3.605,0.786-4.017c-0.008-0.146-0.076-0.278-0.132-0.352c-0.095-0.124-0.544-0.725-0.544-0.725l1.602-1.197 c0,0,0.436,0.583,0.532,0.708c0.233,0.308,0.513,0.823,0.54,1.562c0.018,0.479-0.706,4.093-0.878,4.627 c-0.225,0.712-0.618,1.29-1.121,1.666c-0.033,1.652-0.89,3.084-1.155,3.489c-1.357,2.066-3.266,3.444-4.804,4.297 c0.222,1.018,1.299,1.435,1.312,1.438l5.55,1.818c2.556,0.994,4.408,3.113,5.021,5.697c0.011,0.032,0.021,0.064,0.027,0.098 c0.138,0.627-0.015,1.273-0.418,1.774C99.124,80.709,98.515,81,97.859,81z" />
    <path fill="#1f212b" d="M85.499 73.785c-.235 0-.445-.167-.49-.407-.052-.271.127-.533.398-.584 2.136-.403 2.715-1.274 2.721-1.283.125-.247.413-.331.661-.207.247.123.338.44.215.688-.007.013-.662 1.267-3.411 1.785C85.562 73.782 85.53 73.785 85.499 73.785zM83 74c-4.834 0-5.945-1.9-5.99-1.98-.134-.242-.047-.546.194-.681.234-.129.534-.052.672.181C77.909 71.567 78.917 73 83 73c.13 0 .252-.004.373-.008l.112-.004c.29-.02.507.209.515.485s-.209.506-.485.515l-.108.003C83.273 73.996 83.142 74 83 74zM73.5 56c-.164 0-.321-.081-.416-.222C71.063 54.118 70 51.598 70 48.5 70 42.355 75.042 36 83.479 36c4.334 0 6.794 1.912 7.667 3.659C93.977 40.089 96 43.733 96 48.5c0 5.075-3.08 7.315-3.211 7.408-.154.109-.357.122-.523.033-.167-.089-.27-.265-.266-.454.001-.023.038-2.42-1.465-4.713-.161-.245-.381-.507-.623-.798-.274-.329-.576-.692-.864-1.103-.577-.823-.838-1.554-.955-2.272C87.034 48.479 84.968 51 81.5 51c-.192 0-.367-.11-.45-.283-.084-.174-.061-.379.06-.529 1.054-1.316 1.598-2.799 1.798-3.845-3.379 1.882-5.945 6.355-5.973 6.404-.076.136-.213.228-.367.248-.154.02-.31-.031-.421-.142-.034-.034-.633-.646-.951-1.829C74.016 53.397 74 55.476 74 55.5c0 .22-.144.414-.354.479C73.598 55.993 73.549 56 73.5 56zM83.479 37C75.668 37 71 42.847 71 48.5c0 1.751.381 4.122 2.092 5.938.168-1.184.644-3.192 1.992-5.215.122-.184.348-.268.561-.201C75.855 49.085 76 49.279 76 49.5c0 .954.245 1.646.474 2.083.973-1.524 3.573-5.194 6.835-6.545.154-.064.331-.046.469.046C83.917 45.177 84 45.333 84 45.5c0 1.08-.464 2.81-1.468 4.407 3.76-.691 5.316-5.032 5.493-5.565.078-.233.304-.382.555-.335C88.822 44.046 89 44.255 89 44.5l-.001.288c-.004 1.314-.008 2.265.867 3.512.271.385.556.727.814 1.037.27.323.512.616.69.889 1.036 1.58 1.415 3.178 1.552 4.197C93.751 53.502 95 51.599 95 48.5c0-4.395-1.777-7.707-4.227-7.876-.19-.014-.356-.134-.429-.31C89.72 38.785 87.547 37 83.479 37z" />
  </g>
  <g>
    <path fill="#d4dff2" d="M64.625,68.625c-1.547-0.723-6.125-2.938-6.125-2.938s-0.68-0.258-1.33-0.857L57,65c0,0-2,2.5-7,2.5 S43,65,43,65l-0.172-0.165c-0.649,0.596-1.326,0.853-1.326,0.853s-4.578,2.215-6.125,2.938C32.977,69.746,30.002,72,30.002,76 L30,80h40v-4C70,72,67.025,69.746,64.625,68.625z" />
    <path fill="#ead6c7" d="M64.581,41.93c-0.122-0.159-0.831-0.944-0.831-0.944v-4.559c0-7.697-6.184-13.676-13.714-13.676 c-0.012,0-0.024,0.002-0.036,0.002s-0.024-0.002-0.036-0.002c-7.53,0-13.714,5.98-13.714,13.676v4.559c0,0-0.709,0.786-0.831,0.944 c-0.204,0.269-0.397,0.676-0.417,1.237c-0.012,0.339,0.802,4.619,1.039,5.354c0.26,0.826,0.78,1.503,1.46,1.73v0.613 c0,1.52,0.712,2.993,1.241,3.799c1.59,2.422,2.999,4.194,5.259,5.329c0,0.087,0,2.172,0,2.259c0,2.539-1.5,3.438-1.5,3.438 S43.75,72,50,72s7.5-6.313,7.5-6.313S56,64.75,56,62.25c0-0.087,0-1.913,0-2c2.26-1.135,3.669-3.167,5.259-5.588 c0.529-0.806,1.241-2.279,1.241-3.799V50.25c0.679-0.227,1.2-0.904,1.46-1.73c0.236-0.735,1.051-5.015,1.039-5.354 C64.978,42.606,64.786,42.199,64.581,41.93z" />
    <path fill="#565fa1" d="M60.023,23.613C58.985,21.423,55.965,19,50.593,19C40.206,19,34,26.961,34,34.658 c0,2.694,0.701,6.46,4.041,9.108l0.041,0.009C38.177,43.918,38.336,44,38.5,44c0.06,0,0.12-0.011,0.179-0.033 c0.219-0.084,0.351-0.309,0.315-0.542c-0.004-0.026-0.325-2.349,1.164-5.332c0.321,1.428,1.026,1.81,1.128,1.857 c0.22,0.104,0.486,0.034,0.625-0.168c0.038-0.055,3.659-5.255,8.064-7.489c-0.089,1.352-0.467,3.111-1.869,4.896 c-0.118,0.151-0.14,0.355-0.056,0.528C48.134,37.891,48.309,38,48.5,38c2.421,0,5.563-0.966,7.643-5.26 c0.157,0.645,0.486,1.298,1.172,2.293c0.359,0.52,0.735,0.98,1.067,1.387c0.313,0.384,0.584,0.715,0.779,1.017 c1.89,2.936,1.839,6.002,1.838,6.033c-0.004,0.187,0.096,0.36,0.259,0.45s0.363,0.081,0.519-0.021 C61.949,43.784,66,41.01,66,34.658C66,28.669,63.505,24.101,60.023,23.613z" />
    <path fill="#fff" d="M58.5,65.688c0,0-0.478-0.185-1.015-0.595l-0.707-0.595c-0.096,0.108-0.16,0.181-0.167,0.189 C56.592,64.709,54.667,67,50,67s-6.592-2.291-6.609-2.313c-0.004-0.004-0.075-0.085-0.184-0.208l-0.692,0.614 c-0.537,0.41-1.013,0.594-1.013,0.594s-0.72,0.348-1.682,0.812L44.68,80h10.64l4.86-13.501C59.219,66.036,58.5,65.688,58.5,65.688z" />
    <path fill="#f15b6c" d="M50.936,73c1.423-0.882,2.213-2,2.213-2L50,67.5l-3.147,3.497c0,0,0.789,1.121,2.211,2.003H49 c-1.75,2.75-1.5,6.5-1.5,6.5h5c0,0,0.25-3.75-1.5-6.5H50.936z" />
    <path fill="#1f212b" d="M38.5 44c-.164 0-.322-.081-.417-.225l-.041-.009C34.701 41.12 34 37.353 34 34.658 34 26.961 40.206 19 50.593 19c5.372 0 8.393 2.423 9.431 4.612C63.505 24.102 66 28.67 66 34.658c0 6.352-4.051 9.125-4.224 9.24-.155.104-.355.112-.519.021-.163-.09-.263-.264-.259-.45 0-.008.016-.766-.197-1.875-.052-.271.126-.534.396-.586.274-.051.534.125.586.396.076.398.126.755.158 1.057C63.041 41.403 65 38.918 65 34.658c0-5.622-2.251-9.862-5.354-10.08-.191-.014-.357-.135-.429-.313C58.428 22.298 55.695 20 50.593 20 40.832 20 35 27.453 35 34.658c0 2.272.536 5.371 2.971 7.719.062-1.325.449-3.611 2.111-6.15.12-.187.353-.268.561-.206C40.854 36.084 41 36.279 41 36.5c0 1.209.241 1.873.447 2.22 1.115-1.496 4.656-5.907 8.858-7.681.155-.065.332-.048.471.044C50.916 31.176 51 31.332 51 31.5c0 .8 0 3.055-1.491 5.435.626-.084 1.218-.25 1.791-.5l1.927-1.265c1.749-1.612 2.528-3.999 2.784-4.783.077-.234.33-.397.561-.359C56.814 30.065 57 30.254 57 30.5v.226c-.002 1.644-.003 2.085 1.139 3.74.177.257.358.497.538.726.17.217.133.531-.085.702-.217.168-.531.133-.702-.085-.191-.244-.385-.5-.574-.774-.681-.987-1.01-1.64-1.169-2.279-.5 1.032-1.238 2.222-2.309 3.202l-2.064 1.354C50.713 37.781 49.636 38 48.5 38c-.191 0-.366-.109-.449-.281-.084-.172-.063-.377.056-.527 1.402-1.785 1.78-3.545 1.869-4.896-4.405 2.234-8.026 7.434-8.064 7.489-.139.201-.405.272-.625.168-.102-.048-.807-.43-1.128-1.858-1.489 2.982-1.168 5.306-1.164 5.332.035.232-.097.457-.315.541C38.62 43.989 38.56 44 38.5 44zM50 63v-1c2.323 0 6.438-2.644 6.479-2.67l.543.84C56.843 60.285 52.617 63 50 63z" />
    <path fill="#1f212b" d="M50.002,63c-2.617,0-6.843-2.715-7.021-2.83l0.543-0.84c0.041,0.026,4.155,2.67,6.479,2.67V63z" />
    <path fill="#1f212b" d="M70 81H30c-.266 0-.52-.105-.707-.293S29 80.265 29 80l.002-4c0-4.786 3.729-7.243 5.952-8.281 1.543-.721 6.112-2.932 6.112-2.932.154-.063 1.936-.778 1.936-2.537V61.3c-2.02-1.432-3.508-3.348-5.086-5.751-.547-.833-1.414-2.843-1.414-4.687v-.006c-.635-.435-1.134-1.145-1.414-2.036-.211-.656-1.105-5.11-1.083-5.69.029-.856.354-1.455.62-1.806.123-.16.67-.892.67-.892l1.602 1.197c0 0-.559.747-.682.908-.089.116-.2.329-.212.664.034.439.786 4.376.991 5.013.174.553.497.978.825 1.087.408.137.683.519.683.948v.612c0 1.262.631 2.896 1.086 3.589 1.556 2.37 2.994 4.208 4.957 5.479.285.185.457.501.457.84v1.48c0 3.147-3.003 4.319-3.147 4.373.001.004-4.519 2.19-6.055 2.908-2.188 1.022-4.798 2.975-4.798 6.469L31 79h38v-3c0-3.494-2.609-5.446-4.798-6.469-1.551-.725-6.138-2.943-6.138-2.943C58.021 66.575 55 65.406 55 62.25v-1.48c0-.339.172-.655.457-.84 1.963-1.271 3.401-3.108 4.957-5.479.455-.693 1.086-2.327 1.086-3.589V50.25c0-.43.274-.812.683-.948.328-.109.651-.534.823-1.081.207-.643.959-4.579.993-5.076-.012-.277-.123-.49-.214-.609-.121-.158-.68-.905-.68-.905l1.602-1.197c0 0 .547.731.668.889.269.354.593.952.622 1.811.022.578-.872 5.032-1.085 5.694-.279.887-.777 1.596-1.412 2.03v.006c0 1.844-.867 3.854-1.414 4.687C60.508 57.952 59.02 59.868 57 61.3v.95c0 1.786 1.833 2.494 1.852 2.501.085.037 4.653 2.247 6.196 2.968C67.271 68.757 71 71.214 71 76v4C71 80.553 70.553 81 70 81zM60.737 40c-.203 0-.395-.125-.47-.327-.241-.658-.55-1.303-.916-1.917-.142-.237-.063-.544.174-.686.233-.142.543-.065.686.174.397.667.732 1.367.996 2.083.095.26-.038.547-.297.643C60.853 39.99 60.795 40 60.737 40z" />
    <path fill="#1f212b" d="M52.968,80h-5.936l-0.031-0.467c-0.011-0.16-0.24-3.946,1.577-6.802l0.844,0.537 C48.135,75.291,47.99,77.94,47.988,79h4.023c-0.002-1.06-0.146-3.709-1.434-5.731l0.844-0.537c1.817,2.855,1.588,6.642,1.577,6.802 L52.968,80z" />
    <path fill="#1f212b" d="M50,74c-0.067,0-0.136-0.014-0.199-0.041c-2.126-0.923-3.31-2.605-3.359-2.677 c-0.132-0.19-0.115-0.447,0.039-0.62l3.147-3.497C49.724,67.061,49.858,67,50,67l0,0c0.142,0,0.277,0.061,0.372,0.166l3.149,3.5 c0.155,0.172,0.171,0.429,0.038,0.619c-0.049,0.071-1.235,1.752-3.36,2.674C50.136,73.986,50.067,74,50,74z M47.507,71.018 c0.395,0.462,1.255,1.346,2.493,1.934c1.237-0.587,2.1-1.47,2.495-1.931L50,68.247L47.507,71.018z" />
    <path fill="#1f212b" d="M54.5,73c-0.139,0-0.274-0.058-0.372-0.165l-4.5-5c-0.185-0.206-0.168-0.521,0.037-0.707 s0.521-0.168,0.707,0.037l4.249,4.723c3.387-1.706,4.906-5.056,4.922-5.09c0.112-0.253,0.41-0.367,0.659-0.255 c0.252,0.111,0.366,0.406,0.255,0.659c-0.07,0.16-1.776,3.943-5.75,5.753C54.641,72.985,54.57,73,54.5,73z" />
    <path fill="#1f212b" d="M45.5,73c-0.07,0-0.141-0.015-0.207-0.045c-3.974-1.81-5.68-5.593-5.75-5.753 c-0.111-0.253,0.003-0.548,0.255-0.659c0.249-0.112,0.547,0.002,0.659,0.255c0.016,0.034,1.535,3.384,4.922,5.09l4.249-4.723 c0.187-0.204,0.502-0.221,0.707-0.037c0.205,0.186,0.222,0.501,0.037,0.707l-4.5,5C45.774,72.942,45.639,73,45.5,73z" />
    <path fill="#1f212b" d="M44.5 80c-.205 0-.397-.127-.471-.331l-4.5-12.5c-.094-.26.042-.546.302-.64.258-.091.546.041.64.302l4.5 12.5c.094.26-.042.546-.302.64C44.613 79.99 44.557 80 44.5 80zM55.5 80c-.057 0-.113-.01-.169-.029-.26-.094-.396-.38-.302-.64l4.5-12.5c.094-.261.383-.393.64-.302.26.094.396.38.302.64l-4.5 12.5C55.897 79.873 55.705 80 55.5 80zM50 68c-5.181 0-7.303-2.578-7.391-2.688-.172-.216-.138-.53.078-.703.216-.171.527-.139.702.077C43.423 64.727 45.351 67 50 67c.841 0 1.65-.074 2.404-.222.265-.05.533.125.587.396.053.271-.125.534-.396.587C51.778 67.919 50.905 68 50 68zM54.5 67.17c-.195 0-.381-.115-.461-.308-.106-.255.014-.547.269-.653 1.584-.662 2.298-1.516 2.305-1.524.174-.212.491-.244.702-.071.214.174.248.486.075.7-.034.043-.859 1.05-2.697 1.817C54.63 67.157 54.564 67.17 54.5 67.17z" />
  </g>
</svg>