<?xml version="1.0" encoding="utf-8"?>
<svg xmlns="http://www.w3.org/2000/svg" viewBox="0 0 100 100" width="500" height="500">
  <circle cx="14" cy="29" r="2" fill="#ee3e54" />
  <circle cx="78" cy="13" r="1" fill="#f1bc19" />
  <circle cx="51" cy="50" r="37" fill="#fce0a2" />
  <circle cx="84" cy="15" r="4" fill="#f1bc19" />
  <circle cx="88" cy="24" r="2" fill="#ee3e54" />
  <circle cx="82" cy="76" r="2" fill="#fbcd59" />
  <circle cx="16" cy="63" r="4" fill="#fbcd59" />
  <circle cx="26" cy="87" r="2" fill="#ee3e54" />
  <circle cx="19.5" cy="53.5" r="2.5" fill="#fff" />
  <circle cx="22" cy="67" r="1" fill="#f1bc19" />
  <circle cx="81" cy="34" r="1" fill="#fff" />
  <path fill="#fabf82" d="M75.14,36.04c-0.46-1.004-1.84-1.258-2.844-0.799l-6.727,3.367l-7.319-0.545 c-1.088-0.415-1.18-0.536-2.274-0.87l0.797-3.157l-4.846-1.224l-0.798,3.159c-1.108-0.222-2.217-0.418-3.331-0.566l-8.542,0.612 l-7.287,4.348c-0.83,0.564-1.145,1.891-0.643,2.545c0.614,0.8,1.615,0.924,2.798,0.32l6.336-3.815l6.743-0.152l-3.866,14.612 l9.788,2.438l3.861-14.589l8.987,0.866l8.335-4.085C75.147,38.063,75.524,36.878,75.14,36.04z" />
  <path fill="#472b29" d="M53.125,56.813c-0.04,0-0.08-0.005-0.121-0.015l-9.788-2.438c-0.13-0.032-0.241-0.115-0.31-0.231 c-0.067-0.115-0.087-0.253-0.053-0.382l3.696-13.969l-5.945,0.134l-6.222,3.746c-1.432,0.731-2.679,0.564-3.453-0.444 c-0.296-0.386-0.406-0.922-0.312-1.51c0.116-0.721,0.517-1.376,1.07-1.753L39,35.587c0.066-0.04,0.143-0.064,0.22-0.069 l8.542-0.612c0.037-0.003,0.068-0.001,0.103,0.003c0.898,0.12,1.851,0.278,2.896,0.48l0.683-2.699 c0.032-0.129,0.114-0.239,0.229-0.307c0.113-0.068,0.25-0.088,0.378-0.055l4.846,1.224c0.269,0.068,0.431,0.339,0.362,0.607 l-0.682,2.701c0.409,0.138,0.658,0.244,0.955,0.371c0.218,0.093,0.464,0.198,0.83,0.339l7.107,0.529l6.604-3.305 c1.226-0.561,2.921-0.272,3.521,1.038l0,0c0.505,1.099,0.013,2.555-1.053,3.116l-8.349,4.092c-0.082,0.041-0.175,0.058-0.268,0.049 l-8.564-0.825L53.608,56.44C53.549,56.664,53.347,56.813,53.125,56.813z M43.95,53.512l8.817,2.197l3.734-14.113 c0.063-0.236,0.289-0.395,0.531-0.37l8.847,0.853l8.208-4.023c0.573-0.302,0.876-1.201,0.598-1.807l0,0 c-0.336-0.733-1.429-0.896-2.182-0.553l-6.712,3.359c-0.081,0.041-0.171,0.058-0.261,0.052l-7.318-0.545 c-0.049-0.004-0.096-0.014-0.142-0.031c-0.42-0.16-0.694-0.278-0.934-0.38c-0.38-0.162-0.653-0.279-1.309-0.479 c-0.255-0.078-0.403-0.342-0.338-0.601l0.674-2.672l-3.876-0.979l-0.676,2.674c-0.065,0.258-0.317,0.42-0.583,0.368 c-1.19-0.239-2.253-0.42-3.248-0.554l-8.372,0.6l-7.185,4.287c-0.301,0.206-0.548,0.621-0.62,1.069 c-0.05,0.305-0.006,0.582,0.117,0.742c0.588,0.764,1.508,0.52,2.175,0.179l6.305-3.797c0.074-0.045,0.159-0.07,0.246-0.072 l6.743-0.152c0.151-0.007,0.307,0.067,0.404,0.19c0.098,0.123,0.131,0.285,0.091,0.437L43.95,53.512z" />
  <path fill="#fabf82" d="M72.25,58l-8.75-5.25l-7.875-2.313l3.191-12.675c-0.842-0.332-1.688-0.622-2.534-0.905 c-0.47,1.58-2.207,2.713-3.97,2.267c-1.763-0.445-2.418-1.681-2.483-3.411c-0.885-0.154-1.771-0.298-2.659-0.406l-3.837,15.067 c-0.079,0.311-5.563,7.563-5.563,7.563l-7.875,0.875C29.146,59,28.646,59,28.146,60l-1.375,2.25c-0.438,1.063-0.313,2,1.375,1.938 L40.208,63.5l8.708-6.25L61.083,58l6.833,3.667C68.583,62,69.651,62.219,70.5,61.75l1.583-0.833 C73.417,60.167,73.621,58.814,72.25,58z" />
  <path fill="#ee3e54" d="M47.625,36.063l-3.188,12.563l10.25,2.625L58,38.063l-1.375-0.5c0,0-4.375,5.063-7.563-1.375" />
  <polygon fill="#88ae45" points="54.562,51.188 44.687,48.688 44.125,50.188 39.25,57.125 42.75,60.75 48.812,56.375 56.562,56.938 59.062,52.188" />
  <path fill="#472b29" d="M48.218,36.867c0.117,0.018,0.232,0.036,0.346,0.054c0.472,2.32,2.061,3.222,3.406,3.562 c0.369,0.093,0.747,0.14,1.125,0.14c1.546,0,3.012-0.809,3.886-2.047c0.058,0.021,0.115,0.041,0.172,0.061l-2.885,11.46 l-0.329,1.306l1.292,0.379l7.703,2.262l8.602,5.161c0.126,0.075,0.198,0.141,0.233,0.182c-0.04,0.064-0.142,0.181-0.337,0.292 l-1.608,0.847c-0.114,0.063-0.262,0.095-0.439,0.095c-0.27,0-0.585-0.076-0.805-0.186l-6.833-3.667l-0.27-0.145l-0.306-0.019 l-12.167-0.75l-0.497-0.031l-0.407,0.29l-8.378,6.013l-11.628,0.663h-0.012l1.258-2.059l0.031-0.051l0.027-0.053 c0.115-0.23,0.182-0.286,0.182-0.286l0,0c0.047-0.028,0.24-0.072,0.381-0.104c0.058-0.013,0.118-0.027,0.18-0.042l7.785-0.865 l0.599-0.067l0.363-0.48c5.655-7.478,5.717-7.724,5.803-8.062L48.218,36.867 M47.17,35.308l-3.837,15.067 c-0.079,0.312-5.563,7.563-5.563,7.563l-7.875,0.875C29.146,59,28.646,59,28.146,60l-1.375,2.25c-0.424,1.029-0.32,1.94,1.219,1.94 c0.05,0,0.102-0.001,0.156-0.003L40.208,63.5l8.708-6.25L61.083,58l6.833,3.667c0.392,0.196,0.924,0.353,1.467,0.353 c0.38,0,0.766-0.077,1.116-0.27l1.583-0.833c1.333-0.75,1.538-2.103,0.167-2.917l-8.75-5.25l-7.875-2.313l3.191-12.675 c-0.842-0.332-1.688-0.622-2.534-0.905c-0.4,1.344-1.718,2.365-3.188,2.365c-0.258,0-0.52-0.031-0.782-0.098 c-1.763-0.445-2.418-1.681-2.483-3.411C48.945,35.56,48.059,35.416,47.17,35.308L47.17,35.308z" />
  <path fill="#fabf82" d="M54.321,35.18c3.237,0.818,6.534-1.174,7.308-4.434c0.735-3.098-1.208-6.354-4.283-7.179 c-3.236-0.867-6.555,1.088-7.372,4.326C49.163,31.102,51.113,34.37,54.321,35.18" />
  <path fill="#472b29" d="M55.801,36.066c-0.551,0-1.104-0.068-1.651-0.207l0,0c-3.581-0.905-5.759-4.555-4.854-8.137 c0.442-1.751,1.545-3.219,3.105-4.135c1.562-0.916,3.381-1.163,5.127-0.695c3.466,0.929,5.611,4.525,4.782,8.016 c-0.417,1.758-1.498,3.243-3.045,4.181C58.201,35.735,57.01,36.066,55.801,36.066z M54.493,34.502 c1.382,0.35,2.82,0.134,4.045-0.609c1.224-0.742,2.08-1.917,2.41-3.307c0.644-2.715-1.089-5.619-3.784-6.341 c-1.38-0.371-2.821-0.175-4.055,0.55c-1.234,0.725-2.107,1.886-2.457,3.271C49.937,30.898,51.659,33.786,54.493,34.502 L54.493,34.502z" />
  <path fill="#472b29" d="M48.337,49.838c-0.021,0-0.041-0.002-0.062-0.008l-2.908-0.735 c-0.134-0.034-0.215-0.17-0.181-0.304s0.173-0.214,0.304-0.181l2.908,0.735c0.134,0.034,0.215,0.17,0.181,0.304 C48.551,49.763,48.449,49.838,48.337,49.838z" />
  <path fill="#472b29" d="M55.124,51.552c-0.021,0-0.041-0.002-0.062-0.008l-4.848-1.225 c-0.134-0.034-0.215-0.17-0.181-0.304s0.173-0.214,0.304-0.181l4.848,1.225c0.134,0.034,0.215,0.17,0.181,0.304 C55.338,51.477,55.236,51.552,55.124,51.552z" />
  <path fill="#472b29" d="M68.513,52.587c-0.049,0-0.098-0.014-0.141-0.043l-3.153-2.14l-2.866-0.724 c-0.134-0.034-0.215-0.17-0.181-0.304c0.033-0.134,0.172-0.214,0.304-0.181l2.987,0.77l3.19,2.165 c0.114,0.078,0.144,0.233,0.066,0.347C68.671,52.549,68.593,52.587,68.513,52.587z" />
  <path fill="#472b29" d="M65.5,75h-5c-0.276,0-0.5-0.224-0.5-0.5s0.224-0.5,0.5-0.5h5c0.276,0,0.5,0.224,0.5,0.5 S65.776,75,65.5,75z" />
  <path fill="#472b29" d="M56.875,75H36.5c-0.276,0-0.5-0.224-0.5-0.5s0.224-0.5,0.5-0.5h20.375c0.276,0,0.5,0.224,0.5,0.5 S57.151,75,56.875,75z" />
  <path fill="#472b29" d="M31.438,66.875c-0.132,0-0.242-0.103-0.25-0.235c-0.008-0.138,0.098-0.256,0.235-0.264l3.679-0.214 c0.13-0.009,0.257,0.097,0.265,0.235s-0.098,0.256-0.235,0.264l-3.679,0.214C31.447,66.875,31.442,66.875,31.438,66.875z" />
  <path fill="#472b29" d="M37.875,66.501c-0.132,0-0.242-0.103-0.25-0.235c-0.008-0.138,0.098-0.256,0.235-0.264l3.173-0.184 l5.377-4.141c0.108-0.084,0.266-0.064,0.351,0.046c0.084,0.109,0.063,0.266-0.046,0.351l-5.498,4.234l-3.327,0.193 C37.885,66.501,37.88,66.501,37.875,66.501z" />
  <path fill="#472b29" d="M42.875,61.125c-0.067,0-0.134-0.027-0.183-0.08l-3.313-3.563 c-0.095-0.101-0.089-0.259,0.013-0.353c0.102-0.095,0.261-0.088,0.353,0.013l3.313,3.563c0.095,0.101,0.089,0.259-0.013,0.353 C42.997,61.103,42.936,61.125,42.875,61.125z" />
  <path fill="#472b29" d="M56.596,57.03c-0.041,0-0.083-0.01-0.122-0.032c-0.12-0.067-0.163-0.22-0.097-0.34l2.371-4.248 c0.067-0.12,0.218-0.164,0.341-0.096c0.12,0.067,0.163,0.22,0.097,0.34l-2.371,4.248C56.769,56.984,56.684,57.03,56.596,57.03z" />
  <g>
    <path fill="#472b29" d="M42.103,28.389c1.092,2.349,11.723,8.836,18.629-2.943c-3.749-3.971-7.665-2.152-10.434,0.087 C47.53,27.772,43.25,28.808,42.103,28.389z" />
    <path fill="#472b29" d="M54.909,31.759c-1.777,0.826-3.483,1.022-4.906,0.954c-4.275-0.204-7.67-2.804-8.292-4.142 c-0.074-0.158-0.045-0.346,0.074-0.474c0.12-0.128,0.302-0.174,0.466-0.114c0.889,0.326,5.006-0.544,7.775-2.786 c4.162-3.365,7.87-3.383,11.019-0.048c0.132,0.14,0.155,0.349,0.058,0.515C59.175,28.955,56.994,30.79,54.909,31.759z M43.032,28.906c1.141,1.151,3.807,2.792,7.013,2.945c2.807,0.135,6.824-0.867,10.146-6.341c-2.768-2.751-5.918-2.634-9.621,0.36 C48.258,27.735,44.936,28.823,43.032,28.906z" />
  </g>
</svg>