<?xml version="1.0" encoding="utf-8"?>
<svg xmlns="http://www.w3.org/2000/svg" x="0" y="0" viewBox="0 0 128 128" width="512" height="512">
  <circle cx="54" cy="54" r="50" fill="#fff" />
  <path fill="#71c2ff" d="M4,88c-0.75,0-1.51-0.28-2.09-0.85C0.72,86,0.69,84.1,1.85,82.91l6.25-6.44c1.15-1.19,3.05-1.22,4.24-0.06 c1.19,1.15,1.22,3.05,0.06,4.24l-6.25,6.44C5.57,87.7,4.78,88,4,88z" />
  <path fill="#71c2ff" d="M21.54,69.92c-0.75,0-1.51-0.28-2.09-0.85c-1.19-1.15-1.22-3.05-0.06-4.24l14.92-15.38 c1.54-1.54,3.55-2.38,5.69-2.38s4.15,0.83,5.66,2.34l12.93,12.93c0.76,0.76,2.07,0.76,2.83,0l23.87-23.87 c1.17-1.17,3.07-1.17,4.24,0c1.17,1.17,1.17,3.07,0,4.24L65.66,66.59c-1.51,1.51-3.52,2.34-5.66,2.34s-4.15-0.83-5.66-2.34 L41.41,53.66c-0.76-0.76-2.07-0.76-2.83,0L23.69,69.01C23.11,69.61,22.32,69.92,21.54,69.92z" />
  <path fill="#71c2ff" d="M124,1h-22c-1.66,0-3,1.34-3,3s1.34,3,3,3h14.76L106,17.76c-1.17,1.17-1.17,3.07,0,4.24 c0.59,0.59,1.35,0.88,2.12,0.88s1.54-0.29,2.12-0.88L121,11.24V26c0,1.66,1.34,3,3,3s3-1.34,3-3V4C127,2.34,125.66,1,124,1z" />
  <path fill="#444b54" d="M125.84,121.59L93.51,89.27C101.89,79.9,107,67.53,107,54c0-29.22-23.78-53-53-53S1,24.78,1,54 c0,3.53,0.35,7.05,1.04,10.48c0.33,1.62,1.91,2.68,3.53,2.35c1.62-0.33,2.68-1.91,2.35-3.53C7.31,60.26,7,57.13,7,54 C7,28.08,28.08,7,54,7s47,21.08,47,47s-21.08,47-47,47c-12.39,0-24.09-4.78-32.93-13.46c-1.18-1.16-3.08-1.14-4.24,0.04 c-1.16,1.18-1.14,3.08,0.04,4.24C26.84,101.61,40.02,107,54,107c13.54,0,25.9-5.11,35.27-13.49l32.32,32.32 c0.59,0.59,1.35,0.88,2.12,0.88s1.54-0.29,2.12-0.88C127.01,124.67,127.01,122.77,125.84,121.59z" />
</svg>