<?xml version="1.0" encoding="utf-8"?>
<svg xmlns="http://www.w3.org/2000/svg" viewBox="0 0 100 100" width="500" height="500">
  <path fill="#fff" d="M80.8 31.900000000000002A0.7 0.7 0 1 0 80.8 33.300000000000004A0.7 0.7 0 1 0 80.8 31.900000000000002Z" />
  <path fill="#f1bc19" d="M78.1 12.6A0.9 0.9 0 1 0 78.1 14.4A0.9 0.9 0 1 0 78.1 12.6Z" />
  <path fill="#c0e5e4" d="M50.9 13.299999999999997A37.5 37.5 0 1 0 50.9 88.3A37.5 37.5 0 1 0 50.9 13.299999999999997Z" />
  <path fill="#f1bc19" d="M83.6 11.6A4 4 0 1 0 83.6 19.6A4 4 0 1 0 83.6 11.6Z" />
  <path fill="#00a5a5" d="M13.4 27.400000000000002A1.9 1.9 0 1 0 13.4 31.2A1.9 1.9 0 1 0 13.4 27.400000000000002Z" />
  <path fill="#fbcd59" d="M78.6 75.39999999999999A1.9 1.9 0 1 0 78.6 79.2 1.9 1.9 0 1 0 78.6 75.39999999999999zM18.6 72.2A4 4 0 1 0 18.6 80.2 4 4 0 1 0 18.6 72.2z" />
  <path fill="#00a5a5" d="M24.5 80.89999999999999A1.9 1.9 0 1 0 24.5 84.7A1.9 1.9 0 1 0 24.5 80.89999999999999Z" />
  <path fill="#fff" d="M67.2 76.60000000000001A2.6 2.6 0 1 0 67.2 81.8 2.6 2.6 0 1 0 67.2 76.60000000000001zM16.1 47A.9.9 0 1 0 16.1 48.8.9.9 0 1 0 16.1 47z" />
  <path fill="#f1bc19" d="M85.3 30.3A0.9 0.9 0 1 0 85.3 32.1A0.9 0.9 0 1 0 85.3 30.3Z" />
  <path fill="#fff" d="M80.5 64.60000000000001A1.8 1.8 0 1 0 80.5 68.2A1.8 1.8 0 1 0 80.5 64.60000000000001Z" />
  <path fill="#fdfcee" d="M37.3,27.9h32.2c3.1,0,5.5,2.5,5.5,5.5v32.2c0,3.1-2.5,5.5-5.5,5.5H37.3c-3.1,0-5.5-2.5-5.5-5.5 V33.4C31.7,30.4,34.2,27.9,37.3,27.9z" />
  <path fill="#472b29" d="M69.5,71.7H37.3c-3.3,0-6-2.7-6-6V33.4c0-3.3,2.7-6,6-6h32.2c3.3,0,6,2.7,6,6v32.2 C75.5,69,72.8,71.7,69.5,71.7z M37.3,28.4c-2.8,0-5,2.3-5,5v32.2c0,2.8,2.3,5,5,5h32.2c2.8,0,5-2.3,5-5V33.4c0-2.8-2.3-5-5-5 H37.3z" />
  <path fill="#472b29" d="M65.8 35.1H62c-.3 0-.5-.2-.5-.5s.2-.5.5-.5h3.8c.3 0 .5.2.5.5S66.1 35.1 65.8 35.1zM60.1 35.1H32c-.3 0-.5-.2-.5-.5s.2-.5.5-.5h28c.3 0 .5.2.5.5S60.4 35.1 60.1 35.1zM74.7 35.1H69c-.3 0-.5-.2-.5-.5s.2-.5.5-.5h5.7c.3 0 .5.2.5.5S75 35.1 74.7 35.1zM74.7 67h-35c-.3 0-.5-.2-.5-.5s.2-.5.5-.5h35c.3 0 .5.2.5.5S75 67 74.7 67zM37.8 67H32c-.3 0-.5-.2-.5-.5S31.8 66 32 66h5.7c.3 0 .5.2.5.5S38.1 67 37.8 67z" />
  <path fill="#ee3e54" d="M37.1 30.099999999999998A1.3 1.3 0 1 0 37.1 32.699999999999996A1.3 1.3 0 1 0 37.1 30.099999999999998Z" />
  <path fill="#472b29" d="M37.1,33c-0.9,0-1.6-0.7-1.6-1.6s0.7-1.6,1.6-1.6s1.6,0.7,1.6,1.6S38,33,37.1,33z M37.1,30.4 c-0.5,0-1,0.4-1,1s0.4,1,1,1s1-0.4,1-1S37.7,30.4,37.1,30.4z" />
  <path fill="#f1bc19" d="M41.6 30.099999999999998A1.3 1.3 0 1 0 41.6 32.699999999999996A1.3 1.3 0 1 0 41.6 30.099999999999998Z" />
  <path fill="#472b29" d="M41.6,33c-0.9,0-1.6-0.7-1.6-1.6s0.7-1.6,1.6-1.6s1.6,0.7,1.6,1.6S42.5,33,41.6,33z M41.6,30.4 c-0.5,0-1,0.4-1,1s0.4,1,1,1s1-0.4,1-1S42.1,30.4,41.6,30.4z" />
  <path fill="#88ae45" d="M46.1 30.099999999999998A1.3 1.3 0 1 0 46.1 32.699999999999996A1.3 1.3 0 1 0 46.1 30.099999999999998Z" />
  <path fill="#472b29" d="M46.1,33c-0.9,0-1.6-0.7-1.6-1.6s0.7-1.6,1.6-1.6s1.6,0.7,1.6,1.6S46.9,33,46.1,33z M46.1,30.4 c-0.5,0-1,0.4-1,1s0.4,1,1,1s1-0.4,1-1S46.6,30.4,46.1,30.4z" />
  <path fill="#c0e5e4" d="M50 45.7L50 38.1 71.6 38.1 71.6 47 55.1 47" />
  <path fill="#472b29" d="M71.6 47.4H55.1c-.2 0-.4-.2-.4-.4s.2-.4.4-.4h16.2v-8.2H50.3v7.3c0 .2-.2.4-.4.4s-.4-.2-.4-.4v-7.6c0-.2.2-.4.4-.4h21.7c.2 0 .4.2.4.4V47C72 47.2 71.8 47.4 71.6 47.4zM46.8 63.9c-.2 0-.4-.2-.4-.3V37.5c0-.2.2-.4.4-.4s.4.2.4.4v26.1C47.1 63.8 47 63.9 46.8 63.9zM60.8 51.8H50c-.2 0-.4-.2-.4-.3s.2-.3.4-.3h10.8c.2 0 .3.2.3.3S61 51.8 60.8 51.8zM60.8 56.3H50c-.2 0-.4-.2-.4-.3s.2-.3.4-.3h10.8c.2 0 .3.2.3.3S61 56.3 60.8 56.3zM60.8 60.7H50c-.2 0-.4-.2-.4-.3S49.8 60 50 60h10.8c.2 0 .3.2.3.3S61 60.7 60.8 60.7z" />
  <path fill="#c0e5e4" d="M62.7 51.5H71.60000000000001V60.4H62.7z" />
  <path fill="#472b29" d="M71.6 60.8h-8.9c-.2 0-.4-.2-.4-.4v-8.9c0-.2.2-.4.4-.4h8.9c.2 0 .4.2.4.4v8.9C72 60.6 71.8 60.8 71.6 60.8zM63.1 60h8.2v-8.2h-8.2V60zM53.6 47.4h-1.8c-.2 0-.4-.2-.4-.4s.2-.4.4-.4h1.8c.2 0 .4.2.4.4S53.8 47.4 53.6 47.4zM37.6 40.8c0-.1 0-.3 0-.4 0-.1 0-.2 0-.4 0-.7-.5-1.4-1.2-1.6-.1-1-.9-1.7-1.8-1.7-.3-.7-1.1-1.2-1.9-1.2-.7 0-1.4.4-1.8 1-.1 0-.3 0-.4 0-.9 0-1.7.7-1.7 1.6v.1c-.8.2-1.4.9-1.4 1.8 0 .4.2.8.4 1.2-.2.3-.3.6-.3.9 0 .9.8 1.6 1.7 1.6 0 0 0 0 0 0 .2 0 .5 0 .7-.1 0 .8.7 1.4 1.5 1.3.2 0 .3 0 .5-.1.4.5 1 .7 1.6.7 1 0 1.8-.7 2-1.6.7-.2 1.1-.8 1.2-1.5C37.1 42.1 37.5 41.5 37.6 40.8z" />
  <path fill="#d8ad8f" d="M39.1,49.3c0.1-0.8-0.2-1.6-0.1-2l0,0c-0.7-0.9-1.2-2-2.2-2.7c-1.1-0.7-2.4-1.3-3.7-1.6 c-3.1-0.8-6.1,1.5-7.1,4.5v0.1c0.1,0.5,0.1,1.1,0.1,1.6c-0.8,0-1.2,0.5-0.9,1.4c0,0,0.3,1.5,0.5,2.2c0.1,0.4,0.4,0.7,0.8,0.7 c0,0.5,0,0.9,0,1.4c0,0.6,0.1,1.1,0.5,1.6c0.8,1.2,5,4,6,3.9c1.7,0,4.9-2.9,5.8-4.3c0.2-0.3,0.2-0.6,0.3-0.9v-1.6 c0.3,0,0.6-0.3,0.7-0.7c0.2-0.7,0.5-2.2,0.5-2.2C40.6,49.7,40,49.3,39.1,49.3z" />
  <path fill="#512c2b" d="M32.7,39.4c-6.3,0-8.9,4.8-7,9.5c0.1,0.2,0.9,0,1-0.2c0.2-2.6,1.6-4.8,6.1-3.7 c4.4-1.1,5.8,1.1,6.1,3.7c0,0.2,0.7,0.2,0.8,0C41.4,44.1,38.9,39.4,32.7,39.4z" />
  <path fill="#b2876b" d="M41.7,63.6l-0.2-0.1l-0.3-0.1c-0.7-0.3-5-1.8-5-1.8c-0.3-0.1-0.5-0.3-0.7-0.6 c-0.1-0.5-0.2-1.1-0.1-1.6c-0.7,0.3-1.5,0.5-2.3,0.7c-1,0.1-2.8-1.1-2.8-1.1s0,1.7-0.1,2.1c-0.1,0.3-0.4,0.6-0.7,0.6L25.2,63 c-0.4,0.1-0.8,0.3-1.2,0.5c-0.8,0.6-1.4,1.5-1.7,2.5c-0.1,0.4-0.1,0.8,0,1.2c0,0.3-0.1,3.8-0.2,4.2c4.5,3,8.6,2.8,14.3,2.8 c2.5,0,5.2-1.3,7.4-2.1C43.6,66.7,44,64.3,41.7,63.6z" />
  <g opacity=".3">
    <path fill="#f4989e" d="M29 53A1.1 1.1 0 1 0 29 55.2 1.1 1.1 0 1 0 29 53zM37.2 53A1.1 1.1 0 1 0 37.2 55.2 1.1 1.1 0 1 0 37.2 53z" opacity=".8" />
  </g>
  <path fill="#472b29" d="M26.8 54c-.1 0-.2-.1-.2-.2l-.4-4.5c0-.1.1-.2.2-.2.1 0 .2.1.2.2l.4 4.5C27 53.9 26.9 54 26.8 54 26.8 54 26.8 54 26.8 54zM39 53.7C39 53.7 39 53.7 39 53.7c-.1 0-.2-.1-.2-.2L39 49c0-.1.1-.2.2-.2.1 0 .2.1.2.2l-.2 4.5C39.2 53.6 39.1 53.7 39 53.7z" />
  <path fill="#472b29" d="M33.4,59.1C33.4,59.1,33.5,59.1,33.4,59.1 C33.5,59,33.4,59,33.4,59.1C33.4,59,33.4,59,33.4,59.1l-1-0.1c0,0,0,0,0,0.1c0,0,0,0,0,0H33.4z" opacity=".41" />
  <path fill="#472b29" d="M31.8 47.4c-1.4.1-2.7.4-3.9 1-.1 0-.1.1-.1.1 0 .1.1.1.1.1 1.2-.2 2.4-.4 3.7-.5l0 0c0 0 .1 0 .1-.1l.2-.5C31.9 47.5 31.9 47.5 31.8 47.4 31.9 47.4 31.8 47.4 31.8 47.4zM34.3 47.3c1.4.1 2.7.5 3.9 1.1.1 0 .1.1.1.1 0 .1-.1.1-.1.1-1.2-.3-2.4-.5-3.6-.6l0 0c0 0-.1 0-.1-.1l-.2-.5C34.2 47.4 34.2 47.4 34.3 47.3 34.2 47.3 34.2 47.3 34.3 47.3zM30 49.2c-.3 0-.5.2-.6.5h.1c.3 0 .4.3.4.5 0 .2-.2.4-.4.4-.1 0-.1 0-.2-.1.1.4.4.7.8.7.5-.1.8-.5.8-1C30.9 49.8 30.5 49.3 30 49.2 30 49.2 30 49.2 30 49.2zM36 49.2c-.2 0-.5.1-.6.3 0 0 .1 0 .1 0 .2 0 .4.2.4.4 0 0 0 0 0 0 0 .2-.2.4-.4.5-.1 0-.3-.1-.3-.2-.1.5.3.9.8 1 .5-.1.8-.5.8-1C36.9 49.8 36.5 49.3 36 49.2 36 49.2 36 49.2 36 49.2z" />
  <path fill="#472b29" d="M33.1,53.7c0.3,0,0.6-0.2,0.7-0.4c0-0.1,0-0.1,0-0.2 c0,0-0.1-0.1-0.1,0c0,0,0,0,0,0c-0.2,0.3-0.7,0.4-1,0.1c-0.1,0-0.1-0.1-0.1-0.1c0,0-0.1-0.1-0.1,0c0,0,0,0,0,0c0,0.1,0,0.1,0,0.2 C32.5,53.5,32.8,53.7,33.1,53.7z" opacity=".41" />
  <path fill="#6d1b18" d="M30.6,55.5c0,0.1,0,0.2,0,0.3c0,1,1.1,1.8,2.4,1.8s2.5-0.8,2.5-1.8c0-0.1,0-0.2,0-0.3H30.6z" />
  <path fill="#ee3e54" d="M34.3,57.4C34,57.1,33.5,56.9,33,57c-0.5,0-0.9,0.1-1.3,0.4C32.6,57.8,33.5,57.8,34.3,57.4z" />
  <path fill="#fdfcef" d="M31.4,55.5L31.4,55.5v0.3c0,0.3,0.4,0.5,0.8,0.5H34c0.4,0,0.8-0.2,0.8-0.5v-0.3L31.4,55.5z" />
  <path fill="#472b29" d="M33.1 57.9c-1.5 0-2.7-.9-2.7-2.1 0-.1 0-.2 0-.4 0-.1.1-.2.2-.2h4.9c.1 0 .2.1.2.2 0 .1 0 .3 0 .4C35.8 57 34.6 57.9 33.1 57.9zM30.9 55.7C30.9 55.7 30.9 55.8 30.9 55.7c0 1 1 1.7 2.2 1.7 1.2 0 2.2-.7 2.2-1.6 0 0 0-.1 0-.1H30.9zM33.3 60.3C33.3 60.3 33.3 60.2 33.3 60.3c-1.1-.2-2.1-.6-3-1.2-.1-.1-.1-.2-.1-.3.1-.1.2-.1.3-.1.8.5 1.7.9 2.7 1.1.8-.2 1.6-.5 2.3-.9.1-.1.3 0 .3.1.1.1 0 .3-.1.3C35 59.8 34.2 60.1 33.3 60.3 33.3 60.2 33.3 60.3 33.3 60.3z" />
  <path fill="#00a5a5" d="M27.9,62c-0.1,2.5,2.5,2.5,4.9,2.4s4.5,0.1,4.2-2.7l2.6,0.9l0.8,10.5c-5.1,1.6-10.7,1.4-15.7-0.5 l0.5-9.7L27.9,62z" />
  <path fill="#e6e7e8" d="M32.7 64.5l-2 2.1-4-4.2 2.7-1 .8.8L32.7 64.5zM32.7 64.5l2 2.1 3.9-4c-.8-.5-1.7-.8-2.6-1.2l-.8.8L32.7 64.5z" />
  <path fill="#472b29" d="M32.6,74.7c-4.4,0-8.7-0.9-10.7-3.1c-0.1-0.1-0.1-0.2-0.1-0.3c0-0.2,0.1-3.3,0.2-5.3 c0.3-1.2,1-2.2,1.9-2.9c0.4-0.3,0.8-0.4,1.3-0.6l4.2-1.4c0.2-0.1,0.4-0.2,0.5-0.4c0-0.2,0.1-1,0.1-1.5c-1.1-0.7-2.2-1.6-3.1-2.6 c-0.4-0.6-0.6-1.2-0.6-1.8l0-1.1c-0.4-0.1-0.7-0.5-0.8-0.9c-0.2-0.7-0.5-2.1-0.5-2.2c-0.2-0.6-0.2-1,0.1-1.3 c0.1-0.1,0.2-0.2,0.3-0.3c0,0,0,0,0,0l0,0c-1.3-2.8-0.6-6.2,1.7-8.2C27,40.6,27,40.3,27,40c0-0.9,0.5-1.7,1.3-2 c0.1-1.1,1.1-1.8,2.1-1.8c0.1,0,0.1,0,0.2,0c0.2-0.3,0.6-0.6,0.9-0.8c1.2-0.5,2.5-0.1,3.2,1c1,0.1,1.8,0.8,2,1.8 c0.7,0.3,1.2,1,1.2,1.8c0,0.1,0,0.2,0,0.4c0,0,0,0.1,0,0.1c2.5,1.8,3.3,5.1,2,8.3c0,0,0,0.1,0,0.1c0.3,0.1,0.6,0.3,0.7,0.5 c0.2,0.2,0.3,0.6,0.1,1.3c0,0,0,0,0,0c0,0,0,0.1-0.1,0.3c-0.1,0.5-0.3,1.4-0.5,1.9c-0.1,0.4-0.3,0.7-0.7,0.8v1.4 c0,0.4-0.1,0.8-0.3,1.1c-1,1.4-2.1,2.5-3.4,3.4c0,0.4,0,0.8,0.1,1.2c0.1,0.2,0.2,0.3,0.4,0.3c0.2,0.1,4.4,1.5,5,1.8l0.5,0.2 c2.1,0.7,2.2,2.7,2.3,6.3c0,0.8,0,1.6,0.1,2.5c0,0.1-0.1,0.3-0.2,0.3C42.1,73.7,37.3,74.7,32.6,74.7z M22.5,71.2 c3.8,4.1,17.2,3,20.9,0.6c0-0.9-0.1-1.6-0.1-2.4c-0.1-3.8-0.2-5.1-1.8-5.6c0,0,0,0,0,0l-0.5-0.2c-0.6-0.3-4.9-1.8-5-1.8 c-0.4-0.1-0.7-0.4-0.9-0.8c-0.2-0.6-0.2-1.1-0.2-1.7c0-0.1,0.1-0.2,0.2-0.3c1.3-0.9,2.5-2,3.4-3.2c0.1-0.2,0.2-0.5,0.2-0.7l0-1.6 c0-0.2,0.1-0.3,0.3-0.4c0.2,0,0.3-0.2,0.4-0.4c0.2-0.5,0.4-1.4,0.5-1.9c0-0.2,0.1-0.3,0.1-0.3h0c0.1-0.3,0.1-0.5,0-0.6 c-0.1-0.2-0.4-0.3-0.8-0.3c-0.1,0-0.2,0-0.3-0.1c-0.1-0.1-0.1-0.2-0.1-0.3v-0.4c0-0.2,0.2-0.4,0.4-0.4c1.2-3,0.4-5.9-1.9-7.5 c-0.1-0.1-0.2-0.2-0.2-0.4c0-0.1,0-0.2,0-0.2c0,0,0-0.1,0-0.1c0-0.1,0-0.2,0-0.3c0-0.6-0.4-1.1-0.9-1.3c-0.2,0-0.3-0.2-0.3-0.3 c-0.1-0.8-0.7-1.4-1.5-1.4c-0.1,0-0.3-0.1-0.3-0.2c-0.4-0.9-1.4-1.2-2.3-0.8c-0.3,0.1-0.6,0.4-0.7,0.7c-0.1,0.1-0.2,0.2-0.4,0.2 c-0.1,0-0.2,0-0.4,0c-0.8,0-1.4,0.5-1.4,1.3c0,0.2-0.1,0.4-0.3,0.4c-0.6,0.2-1,0.8-1.1,1.4c0,0.2,0.1,0.5,0.2,0.7 c0.1,0.2,0.1,0.4-0.1,0.5c-2.2,1.8-3,4.8-1.8,7.4c0,0,0.1,0,0.1,0c0.1,0,0.2,0,0.3,0.1c0.1,0.1,0.1,0.2,0.1,0.3v0.3 c0,0.2-0.2,0.4-0.4,0.4c-0.3,0-0.5,0.1-0.5,0.2c-0.1,0.1-0.1,0.4,0,0.7c0,0,0.3,1.5,0.5,2.2c0,0.2,0.2,0.4,0.4,0.4 c0.2,0,0.4,0.2,0.4,0.4v1.4c0,0.5,0.1,1,0.4,1.4c0.9,1,1.9,1.8,3.1,2.5c0.1,0.1,0.2,0.2,0.2,0.3c0,0.5-0.1,1.6-0.1,1.9 c-0.2,0.5-0.5,0.8-1,0.9l-4.2,1.4c-0.4,0.1-0.8,0.3-1.1,0.5c-0.8,0.5-1.4,1.4-1.6,2.3C22.7,66.5,22.6,70.3,22.5,71.2z M39.3,48.5 C39.2,48.5,39.2,48.6,39.3,48.5C39.2,48.6,39.2,48.5,39.3,48.5z" />
</svg>