<?xml version="1.0" encoding="utf-8"?>
<svg xmlns="http://www.w3.org/2000/svg" viewBox="0 0 100 100" width="400" height="400">
  <path fill="#f15b6c" d="M51.547,70.5H28.422c-1.066,0-1.937-0.872-1.937-1.938v-0.125c0-1.066,0.872-1.938,1.937-1.938h23.125c1.066,0,1.938,0.872,1.938,1.938v0.125C53.484,69.628,52.612,70.5,51.547,70.5z" />
  <path fill="#1f212b" d="M51.547,71H28.422c-1.344,0-2.437-1.093-2.437-2.438v-0.125c0-1.344,1.093-2.438,2.437-2.438h23.125c1.344,0,2.438,1.093,2.438,2.438v0.125C53.984,69.907,52.891,71,51.547,71z M28.422,67c-0.792,0-1.437,0.645-1.437,1.438v0.125c0,0.792,0.645,1.438,1.437,1.438h23.125c0.793,0,1.438-0.645,1.438-1.438v-0.125c0-0.792-0.645-1.438-1.438-1.438H28.422z" />
  <path fill="#d8955f" d="M59.364 79L20.149 79 22.123 70 57.391 70z" />
  <path fill="#1f212b" d="M59.364,80H20.149c-0.303,0-0.589-0.137-0.779-0.373c-0.189-0.236-0.262-0.545-0.197-0.841l1.973-9C21.246,69.327,21.653,69,22.122,69h35.268c0.47,0,0.876,0.327,0.977,0.786l1.974,9c0.065,0.296-0.008,0.605-0.197,0.841C59.953,79.863,59.667,80,59.364,80z M21.392,78h36.729l-1.535-7H22.927L21.392,78z" />
  <path fill="#1f212b" d="M51.484 76h-4c-.276 0-.5-.224-.5-.5s.224-.5.5-.5h4c.276 0 .5.224.5.5S51.761 76 51.484 76zM44.484 76h-1c-.276 0-.5-.224-.5-.5s.224-.5.5-.5h1c.276 0 .5.224.5.5S44.761 76 44.484 76z" />
  <g>
    <path fill="#1f212b" d="M41.484,76h-21c-0.276,0-0.5-0.224-0.5-0.5s0.224-0.5,0.5-0.5h21c0.276,0,0.5,0.224,0.5,0.5S41.761,76,41.484,76z" />
  </g>
  <g>
    <path fill="#e08e4b" d="M79.406,69.433L79.406,69.433c-0.948,0.948-2.499,0.948-3.447,0L49.001,42.475c-0.948-0.948-0.948-2.499,0-3.447h0c0.948-0.948,2.499-0.948,3.447,0l26.958,26.958C80.354,66.934,80.354,68.485,79.406,69.433z" />
    <path fill="#1f212b" d="M77.682,70.646c-0.752,0-1.505-0.287-2.077-0.859L48.647,42.829c-0.553-0.553-0.857-1.291-0.857-2.077c0-0.787,0.304-1.524,0.857-2.077c1.145-1.146,3.007-1.146,4.154,0L79.76,65.633c0.553,0.553,0.857,1.291,0.857,2.077s-0.305,1.524-0.857,2.077l0,0C79.187,70.359,78.434,70.646,77.682,70.646z M50.724,38.815c-0.496,0-0.993,0.189-1.37,0.566c-0.364,0.364-0.564,0.851-0.564,1.37c0,0.519,0.2,1.006,0.564,1.37L76.312,69.08c0.756,0.755,1.984,0.755,2.74,0c0.364-0.364,0.564-0.851,0.564-1.37c0-0.52-0.2-1.006-0.564-1.37L52.095,39.381C51.717,39.004,51.221,38.815,50.724,38.815z M79.406,69.434h0.01H79.406z" />
    <path fill="#fcba7f" d="M61.339,35.587L45.56,51.366c-1.397,1.397-3.683,1.397-5.081,0l-5.791-5.791c-1.397-1.397-1.397-3.683,0-5.081l15.779-15.779c1.397-1.397,3.683-1.397,5.081,0l5.791,5.791C62.736,31.904,62.736,34.19,61.339,35.587z" />
    <path fill="#1f212b" d="M43.02,53.416c-1.176,0-2.352-0.447-3.248-1.343l-5.791-5.791c-1.791-1.791-1.791-4.705,0-6.495L49.76,24.008c0.864-0.865,2.018-1.341,3.248-1.341s2.383,0.476,3.247,1.341l5.791,5.791c1.791,1.791,1.791,4.705,0,6.495L46.267,52.073C45.372,52.968,44.196,53.416,43.02,53.416z M53.008,24.667c-0.695,0-1.347,0.268-1.833,0.755L35.395,41.202c-1.011,1.011-1.011,2.655,0,3.667l5.791,5.791c1.011,1.01,2.656,1.011,3.667,0L60.632,34.88c1.011-1.011,1.011-2.656,0-3.667l-5.791-5.791C54.354,24.936,53.703,24.667,53.008,24.667z" />
    <g>
      <path fill="#d8955f" d="M46.025,54.083L46.025,54.083c-1.483,1.483-3.909,1.483-5.392,0l-8.662-8.662c-1.483-1.483-1.483-3.909,0-5.392l0,0c1.483-1.483,3.909-1.483,5.392,0l8.662,8.662C47.508,50.174,47.508,52.601,46.025,54.083z" />
      <path fill="#1f212b" d="M43.329,56.198c-1.232,0-2.464-0.469-3.403-1.407l-8.662-8.662c-1.876-1.876-1.876-4.93,0-6.806c1.875-1.877,4.93-1.877,6.806,0l8.662,8.662c1.876,1.876,1.876,4.93,0,6.806C45.794,55.729,44.561,56.198,43.329,56.198z M34.667,39.915c-0.721,0-1.441,0.274-1.989,0.822c-1.096,1.097-1.096,2.881,0,3.978l8.662,8.662c1.097,1.097,2.881,1.097,3.978,0s1.097-2.881,0-3.978l-8.662-8.662C36.108,40.188,35.388,39.915,34.667,39.915z" />
      <g>
        <path fill="#d8955f" d="M64.056,36.052L64.056,36.052c-1.483,1.483-3.909,1.483-5.392,0l-8.662-8.662c-1.483-1.483-1.483-3.909,0-5.392l0,0c1.483-1.483,3.909-1.483,5.392,0l8.662,8.662C65.539,32.143,65.539,34.569,64.056,36.052z" />
        <path fill="#1f212b" d="M61.36,38.166c-1.232,0-2.465-0.469-3.402-1.407l-8.663-8.662c-1.876-1.876-1.876-4.93,0-6.806c1.876-1.876,4.929-1.877,6.806,0l8.662,8.662c1.876,1.876,1.876,4.93,0,6.806c0,0,0,0,0,0C63.825,37.697,62.593,38.166,61.36,38.166z M52.698,21.883c-0.72,0-1.44,0.274-1.989,0.822c-1.096,1.097-1.096,2.881,0,3.978l8.663,8.662c1.097,1.097,2.881,1.095,3.978,0c1.097-1.097,1.096-2.881,0-3.978l-8.662-8.662C54.139,22.157,53.419,21.883,52.698,21.883z M64.057,36.052h0.01H64.057z" />
      </g>
    </g>
  </g>
  <g>
    <path fill="#fff" d="M48.221 31.313L49.441 30.093" />
    <path fill="#1f212b" d="M48.221,31.813c-0.128,0-0.256-0.049-0.354-0.146c-0.195-0.195-0.195-0.512,0-0.707l1.22-1.22c0.195-0.195,0.512-0.195,0.707,0s0.195,0.512,0,0.707l-1.22,1.22C48.477,31.764,48.349,31.813,48.221,31.813z" />
  </g>
  <g>
    <path fill="#fff" d="M41.003 38.53L46.484 33.05" />
    <path fill="#1f212b" d="M41.003,39.03c-0.128,0-0.256-0.049-0.354-0.146c-0.195-0.195-0.195-0.512,0-0.707l5.48-5.48c0.195-0.195,0.512-0.195,0.707,0s0.195,0.512,0,0.707l-5.48,5.48C41.259,38.981,41.131,39.03,41.003,39.03z" />
  </g>
</svg>