<?xml version="1.0" encoding="utf-8"?>
<svg xmlns="http://www.w3.org/2000/svg" viewBox="0 0 100 100" width="500" height="500">
  <circle cx="79" cy="13" r="1" fill="#f1bc19" />
  <circle cx="50" cy="50" r="37" fill="#c0e5e4" />
  <circle cx="85" cy="15" r="4" fill="#f1bc19" />
  <circle cx="13" cy="29" r="2" fill="#00a5a5" />
  <circle cx="80" cy="78" r="2" fill="#fbcd59" />
  <circle cx="26" cy="76" r="4" fill="#fbcd59" />
  <circle cx="27" cy="87" r="2" fill="#00a5a5" />
  <circle cx="58.5" cy="80.5" r="2.5" fill="#fff" />
  <circle cx="23.029" cy="68.971" r=".971" fill="#fff" />
  <circle cx="85" cy="31" r="1" fill="#f1bc19" />
  <circle cx="78" cy="68" r="2" fill="#fff" />
  <circle cx="79" cy="34" r="1" fill="#fff" />
  <polygon fill="#c0d078" points="38.308,48.222 38.308,53.748 33.522,50.985 28.736,48.222 33.522,45.458 38.308,42.695" />
  <polygon fill="#c0d078" points="38.308,37.169 38.308,42.695 33.522,39.932 28.736,37.169 33.522,34.406 38.308,31.643" />
  <polygon fill="#c0d078" points="47.879,31.643 47.879,37.169 43.093,34.406 38.308,31.643 43.093,28.88 47.879,26.117" />
  <polygon fill="#c0e5e4" points="61.692,48.222 61.692,53.748 66.478,50.985 71.264,48.222 66.478,45.458 61.692,42.695" />
  <polygon fill="#c0e5e4" points="61.692,37.169 61.692,42.695 66.478,39.932 71.264,37.169 66.478,34.406 61.692,31.643" />
  <polygon fill="#c0e5e4" points="52.121,31.643 52.121,37.169 56.907,34.406 61.692,31.643 56.907,28.88 52.121,26.117" />
  <polygon fill="#ef8f70" points="40.427,62.947 40.427,68.473 45.214,65.71 49.999,62.947 45.214,60.184 40.427,57.421" />
  <polygon fill="#ef8f70" points="59.571,62.947 59.571,57.421 64.357,60.184 69.142,62.947 64.357,65.71 59.571,68.473" />
  <polygon fill="#ef8f70" points="49.999,68.473 49.999,62.947 54.785,65.71 59.571,68.473 54.785,71.236 49.999,74" />
  <polygon fill="#88ae45" points="28.572,42.695 28.572,37.169 33.44,39.932 38.308,42.695 33.44,45.458 28.572,48.222" />
  <polygon fill="#88ae45" points="28.572,53.748 28.572,48.222 33.44,50.985 38.308,53.748 33.44,56.511 28.572,59.274" />
  <polygon fill="#88ae45" points="38.308,37.169 38.308,31.643 43.093,34.406 47.879,37.169 43.093,39.932 38.308,42.695" />
  <polygon fill="#77cbd2" points="71.518,42.695 71.518,37.169 66.943,39.932 62.369,42.695 66.943,45.458 71.518,48.222" />
  <polygon fill="#77cbd2" points="71.518,53.748 71.518,48.222 66.605,50.985 61.692,53.748 66.605,56.511 71.518,59.274" />
  <polygon fill="#77cbd2" points="61.692,37.169 61.692,31.643 56.907,34.406 52.121,37.169 56.907,39.932 61.692,42.695" />
  <polygon fill="#ee3e54" points="40.427,62.947 40.427,57.421 35.642,60.184 30.856,62.947 35.642,65.71 40.427,68.473" />
  <polygon fill="#ee3e54" points="49.999,68.473 49.999,62.947 45.214,65.71 40.427,68.473 45.214,71.236 49.999,74" />
  <polygon fill="#ee3e54" points="59.571,62.947 59.571,68.473 54.785,65.71 49.999,62.947 54.785,60.184 59.571,57.421" />
  <path fill="#472b29" d="M48.255,25.394c-0.215-0.125-0.484-0.125-0.699,0L28.006,36.68c-0.217,0.125-0.351,0.356-0.351,0.606v22.046c0,0.25,0.134,0.481,0.351,0.606c0.107,0.063,0.229,0.094,0.35,0.094s0.242-0.031,0.35-0.094l9.774-5.644c0.217-0.125,0.351-0.356,0.351-0.606V43.159l9.425-5.441c0.217-0.125,0.351-0.356,0.351-0.606V26C48.605,25.75,48.472,25.519,48.255,25.394z M38.669,32.141l8.222,4.747l-8.334,4.812v-9.494L38.669,32.141z M29.056,37.731l8.437,4.789c-0.028,0.076-0.063,0.15-0.063,0.234v0.152l-8.374,4.754V37.731z M38.058,41.988l-0.243,0.14l-8.292-4.707l8.535-4.928V41.988z M29.056,48.784l8.154,4.628l-8.154,4.708V48.784z M29.078,48.222l8.352-4.741v9.482L29.078,48.222z M47.205,36.491l-8.036-4.639l8.036-4.64V36.491z" />
  <path fill="#472b29" d="M71.994,36.68l-19.55-11.287c-0.217-0.125-0.484-0.125-0.699,0c-0.217,0.125-0.351,0.356-0.351,0.606v11.111c0,0.25,0.134,0.481,0.351,0.606l9.425,5.441v10.531c0,0.25,0.134,0.481,0.351,0.606l9.774,5.644c0.107,0.063,0.229,0.094,0.35,0.094s0.242-0.031,0.35-0.094c0.217-0.125,0.351-0.356,0.351-0.606V37.287C72.345,37.037,72.211,36.806,71.994,36.68z M62.57,43.109l8.374,5.058v0.092l-8.374,4.709V43.109z M70.944,47.583l-8.093-4.888l8.093-4.887V47.583z M70.944,48.832v9.289l-8.15-4.706L70.944,48.832z M62.435,42.363c-0.058-0.083-0.124-0.163-0.215-0.215l-0.277-0.16v-9.494l8.607,4.969L62.435,42.363z M61.442,32.205v9.494l-8.334-4.812l8.222-4.747L61.442,32.205z M60.831,31.852l-8.036,4.639v-9.279L60.831,31.852z" />
  <path fill="#472b29" d="M69.492,62.341l-9.571-5.526c-0.215-0.125-0.484-0.125-0.699,0l-9.223,5.325l-9.222-5.325c-0.215-0.125-0.484-0.125-0.699,0l-9.571,5.526c-0.217,0.125-0.351,0.356-0.351,0.606s0.134,0.481,0.351,0.606l19.143,11.053c0.107,0.063,0.229,0.094,0.35,0.094s0.242-0.031,0.35-0.094l19.144-11.053c0.217-0.125,0.351-0.356,0.351-0.606S69.709,62.466,69.492,62.341z M59.122,67.924l-8.173-4.717l8.372-4.834v9.436L59.122,67.924z M40.178,67.521l-7.921-4.574l7.921-4.574V67.521z M41.377,68.213l8.172-4.718l0.1,0.058c0.031,0.018,0.067,0.014,0.1,0.027v9.467L41.377,68.213z M49.049,63.207l-8.172,4.718l-0.199-0.115v-9.436L49.049,63.207z M50.249,73.048V63.58c0.033-0.013,0.069-0.009,0.1-0.027l0.101-0.058l8.173,4.718L50.249,73.048z M59.821,67.521v-9.147l7.921,4.574L59.821,67.521z" />
</svg>