<?xml version="1.0" encoding="utf-8"?>
<svg xmlns="http://www.w3.org/2000/svg" viewBox="0 0 100 100" width="500" height="500">
  <circle cx="50" cy="50" r="38" fill="#f9dbd2" />
  <circle cx="78" cy="14" r="1" fill="#f1bc19" />
  <circle cx="84" cy="16" r="4" fill="#f1bc19" />
  <circle cx="14" cy="26" r="2" fill="#ee3e54" />
  <circle cx="78" cy="77" r="2" fill="#fbcd59" />
  <circle cx="17" cy="78" r="4" fill="#fbcd59" />
  <circle cx="24" cy="83" r="2" fill="#ee3e54" />
  <circle cx="72.483" cy="68.517" r="2.483" fill="#fff" />
  <circle cx="16" cy="48" r="1" fill="#fff" />
  <circle cx="86" cy="31" r="1" fill="#f1bc19" />
  <circle cx="83" cy="45" r="2" fill="#fff" />
  <path fill="#fabf82" d="M64.167,51.208l-7.458-4.958l-3.834-8.134c-1.102-0.377-2.207-0.702-3.312-0.998l0.687-3.182 l-4.886-1.055l-0.688,3.185c-1.115-0.183-2.231-0.34-3.349-0.45L32.958,39l-6.125,8.542C24.917,50,28.792,52.375,30.5,49.75 l4.375-6.958l5.992-3.3L38.27,51.513l10.752,2.322L51.5,44.5l3.208,5.292l7.417,4.917C64.542,56.375,66.792,52.833,64.167,51.208z" />
  <path fill="#472b29" d="M63.41,55.643c-0.526,0-1.066-0.176-1.569-0.523l-7.561-5.069l-2.599-4.286l-2.298,8.66 l-11.708-2.528l2.471-11.437l-4.917,2.708l-4.307,6.849c-0.623,0.959-1.574,1.457-2.623,1.371c-1.011-0.083-1.911-0.7-2.294-1.572 c-0.366-0.835-0.213-1.752,0.433-2.58l6.197-8.643l8.618-3.486l0.122,0.012c0.902,0.089,1.859,0.213,2.911,0.379l0.694-3.21 l5.863,1.266l-0.693,3.208c1.054,0.291,2.002,0.581,2.886,0.883l0.2,0.068l3.863,8.199l7.337,4.877 c0.938,0.583,1.449,1.473,1.403,2.442c-0.043,0.919-0.594,1.771-1.402,2.172C64.113,55.563,63.765,55.643,63.41,55.643z M55.077,49.437l7.324,4.855c0.548,0.378,1.112,0.453,1.594,0.214c0.488-0.242,0.82-0.761,0.847-1.323 c0.029-0.607-0.305-1.157-0.938-1.549l-0.014-0.009l-7.575-5.036l-3.802-8.068c-0.934-0.314-1.943-0.616-3.081-0.921l-0.459-0.123 l0.682-3.159l-3.908-0.844l-0.683,3.161l-0.47-0.077c-1.17-0.193-2.216-0.335-3.194-0.434l-8.12,3.285l-6.041,8.424 c-0.427,0.549-0.533,1.089-0.317,1.58c0.233,0.532,0.82,0.925,1.46,0.978c0.383,0.032,1.133-0.042,1.699-0.913l4.439-7.061 l7.067-3.892L38.865,51.13l9.796,2.116l2.657-10.01L55.077,49.437z" />
  <path fill="#a2b3cb" d="M32.651,75.958c-0.247,0-0.482-0.094-0.661-0.266c-0.623-0.597-1.222-1.182-1.738-1.718 c-0.317-0.33-0.359-0.823-0.103-1.201c5.373-7.88,5.486-8.402,5.535-8.625l2.614-12.145l11.437,0.46l-0.069,2.045l4.601,7.474 c0.552,0.896,0.503,2.022-0.124,2.868l-6.781,9.21c-0.17,0.231-0.431,0.363-0.716,0.363l0,0c-0.234,0-0.455-0.092-0.621-0.259 c-0.414-0.416-0.853-0.863-1.313-1.35c-0.268-0.284-0.323-0.702-0.139-1.04l4.64-8.501l-5.475-6.701l-3.274,9.822 c-0.061,0.18-0.149,0.347-0.266,0.496l-6.797,8.702C33.22,75.825,32.946,75.958,32.651,75.958z" />
  <path fill="#472b29" d="M38.859,52.727l10.153,0.408l-0.039,1.14l-0.014,0.422l0.221,0.359l4.49,7.294 c0.401,0.651,0.366,1.469-0.093,2.087l-6.78,9.208c-0.048,0.065-0.109,0.078-0.152,0.078c-0.072,0-0.112-0.04-0.125-0.052 c-0.41-0.412-0.845-0.855-1.299-1.336c-0.059-0.062-0.073-0.154-0.034-0.225l4.414-8.088l0.451-0.827l-0.596-0.729l-4.373-5.352 l-1.608-1.969l-0.804,2.412L39.8,66.174c-0.035,0.104-0.086,0.2-0.154,0.287l-6.795,8.701c-0.065,0.084-0.153,0.096-0.199,0.096 c-0.068,0-0.127-0.024-0.177-0.071c-0.725-0.695-1.271-1.235-1.719-1.699c-0.085-0.088-0.096-0.22-0.028-0.32 c5.451-7.996,5.561-8.502,5.641-8.874L38.859,52.727 M37.739,51.28L35,64c-0.119,0.549-3.818,6.016-5.429,8.379 c-0.443,0.649-0.368,1.515,0.177,2.081c0.523,0.542,1.128,1.134,1.758,1.738c0.323,0.309,0.735,0.461,1.145,0.461 c0.489,0,0.975-0.215,1.303-0.635l6.795-8.701c0.166-0.212,0.294-0.451,0.379-0.706L44,58l4.373,5.352l-4.414,8.088 c-0.33,0.604-0.228,1.355,0.245,1.856c0.463,0.491,0.907,0.943,1.325,1.364c0.311,0.313,0.715,0.465,1.117,0.465 c0.484,0,0.965-0.221,1.28-0.648l6.78-9.208c0.794-1.07,0.856-2.517,0.157-3.651l-4.49-7.294l0.086-2.53L37.739,51.28 L37.739,51.28z" />
  <path fill="#fabf82" d="M51.044,35.165c-3.264,0.705-6.49-1.4-7.149-4.685c-0.627-3.122,1.427-6.309,4.53-7.026 c3.264-0.754,6.513,1.315,7.218,4.579C56.341,31.268,54.279,34.466,51.044,35.165" />
  <path fill="#472b29" d="M49.766,36.002c-1.289,0-2.553-0.375-3.659-1.1c-1.514-0.991-2.543-2.513-2.898-4.284 c-0.706-3.518,1.563-7.037,5.06-7.845c1.757-0.407,3.571-0.097,5.099,0.873c1.527,0.97,2.579,2.476,2.96,4.241 c0.377,1.747,0.051,3.538-0.92,5.044s-2.468,2.542-4.215,2.92l0,0C50.717,35.951,50.239,36.002,49.766,36.002z M49.785,23.998 c-0.4,0-0.803,0.046-1.203,0.138c-2.718,0.628-4.551,3.47-4.001,6.206c0.281,1.401,1.095,2.604,2.292,3.389 c1.198,0.785,2.626,1.051,4.023,0.75l0,0c1.381-0.298,2.565-1.119,3.333-2.31c0.768-1.191,1.026-2.608,0.728-3.99 c-0.301-1.396-1.133-2.587-2.341-3.354C51.754,24.28,50.779,23.998,49.785,23.998z" />
  <path fill="#472b29" d="M48.239,21.957c-3.063,0.932-6.011,3.474-4.891,7.772l0.951,2.033 c-1.006-3.379,2.079-3.966,3.428-4.334c2.838-0.568,6.102-0.851,6.554-1.659c0.693-1.372,0.831-2.744,0.114-4.117 C52.167,22.517,51.108,21.244,48.239,21.957z" />
  <path fill="#472b29" d="M43.665,32.059l-0.995-2.153c-1.245-4.777,2.112-7.628,5.365-8.618l0.035-0.01 c1.543-0.384,2.604-0.241,3.542-0.115c0.874,0.118,1.566,0.211,2.529-0.163l0.583-0.227l0.29,0.555 c0.774,1.48,0.737,3.081-0.109,4.757c-0.488,0.874-1.976,1.159-4.785,1.628c-0.742,0.124-1.514,0.253-2.256,0.401l-0.209,0.057 c-0.853,0.224-2.14,0.562-2.633,1.44c-0.275,0.488-0.293,1.145-0.053,1.951L43.665,32.059z M48.426,22.632 c-2.594,0.795-5.04,2.818-4.553,6.173c0.812-1.301,2.441-1.729,3.427-1.988l0.242-0.065c0.804-0.162,1.591-0.294,2.348-0.42 c1.384-0.231,3.476-0.581,3.797-0.93c0.518-1.032,0.628-1.974,0.318-2.891c-0.993,0.252-1.798,0.143-2.579,0.038 C50.579,22.436,49.701,22.318,48.426,22.632z" />
  <g>
    <path fill="#472b29" d="M42.431,49.081c-0.018,0-0.035-0.002-0.053-0.006l-2.933-0.633 c-0.135-0.029-0.221-0.162-0.191-0.297c0.029-0.135,0.166-0.22,0.297-0.192l2.933,0.633c0.135,0.029,0.221,0.162,0.191,0.297 C42.649,49.001,42.546,49.081,42.431,49.081z" />
  </g>
  <g>
    <path fill="#472b29" d="M49.272,50.558c-0.018,0-0.035-0.002-0.053-0.006l-4.887-1.056 c-0.135-0.029-0.221-0.162-0.191-0.297c0.029-0.135,0.166-0.22,0.297-0.192l4.887,1.056c0.135,0.029,0.221,0.162,0.191,0.297 C49.491,50.478,49.388,50.558,49.272,50.558z" />
  </g>
  <g>
    <path fill="#f1bc19" d="M54.957,49.823c-0.303-0.216-0.568-0.479-0.788-0.782l-3.014-4.152l-1.188,7.812l-12.254-0.785 l2.619-11.25l-5.299,2.271l-3.745,5.618l-3.791-2.274l3.985-5.824c0.592-0.866,1.406-1.562,2.354-2.013l5.702-2.713 c0.551-0.262,1.165-0.401,1.774-0.401c0.167,0,0.334,0.01,0.501,0.031c0.326,0.04,0.654,0.081,0.93,0.116 c0.332,1.861,1.628,4.258,3.604,4.685c0.204,0.044,0.414,0.067,0.624,0.067c1.73,0,3.264-1.475,4.183-2.917 c0.156,0.057,0.321,0.119,0.487,0.183c0.858,0.332,1.559,0.972,1.973,1.8l3.296,6.593l6.153,4.311L60.79,53.99L54.957,49.823z" />
    <path fill="#472b29" d="M41.314,36.031c0.138,0,0.278,0.009,0.415,0.025c0.147,0.018,0.295,0.036,0.438,0.054 c0.492,1.944,1.857,4.266,4.034,4.737c0.253,0.054,0.512,0.082,0.772,0.082c1.812,0,3.403-1.333,4.449-2.769 c0.68,0.272,1.236,0.786,1.567,1.448l3.217,6.434l0.159,0.317l0.29,0.203l5.474,3.835l-1.549,2.582l-5.216-3.726 c-0.242-0.173-0.453-0.383-0.628-0.623l-2.012-2.772l-2.004-2.761l-0.513,3.373l-0.835,5.492l-10.789-0.691l2.119-9.098 l0.627-2.694l-2.542,1.09l-3.837,1.645l-0.383,0.164l-0.231,0.347l-3.26,4.889l-2.581-1.549l3.565-5.21 c0.523-0.764,1.241-1.378,2.077-1.776l5.703-2.713C40.298,36.146,40.807,36.031,41.314,36.031L41.314,36.031 M41.314,34.631 c-0.715,0-1.424,0.159-2.075,0.469l-5.703,2.713c-1.06,0.504-1.968,1.281-2.632,2.25L26.5,46.5l5,3l4-6l3.837-1.645 l-2.494,10.707l13.719,0.879l1.028-6.76l2.012,2.772c0.263,0.362,0.583,0.68,0.947,0.94L61,55l3-5l-6.542-4.583l-3.217-6.434 c-0.49-0.979-1.325-1.744-2.345-2.14c-0.389-0.151-0.774-0.291-1.055-0.375c-0.752,1.385-2.262,3.061-3.868,3.061 c-0.158,0-0.317-0.016-0.477-0.051c-1.778-0.384-3.003-2.898-3.127-4.625c-0.285-0.04-0.88-0.114-1.47-0.187 C41.704,34.643,41.509,34.631,41.314,34.631L41.314,34.631z" />
  </g>
  <g>
    <path fill="#472b29" d="M49,50.25c-0.005,0-0.01,0-0.015,0l-5.396-0.318c-0.138-0.008-0.243-0.126-0.235-0.264 c0.008-0.138,0.132-0.247,0.265-0.235l5.396,0.318c0.138,0.008,0.243,0.126,0.235,0.264C49.242,50.147,49.132,50.25,49,50.25z" />
  </g>
  <g>
    <path fill="#472b29" d="M42.336,49.858c-0.005,0-0.01,0-0.015,0l-1.836-0.108c-0.138-0.008-0.243-0.126-0.235-0.264 s0.118-0.245,0.265-0.235l1.836,0.108c0.138,0.008,0.243,0.126,0.235,0.264C42.578,49.755,42.468,49.858,42.336,49.858z" />
  </g>
  <g>
    <path fill="#6f913d" d="M64.5,47c-0.828,0-1.5-0.672-1.5-1.5v-5c0-0.828,0.672-1.5,1.5-1.5s1.5,0.672,1.5,1.5v5 C66,46.328,65.328,47,64.5,47z" />
  </g>
  <g>
    <path fill="#6f913d" d="M64.5,36c-0.828,0-1.5-0.672-1.5-1.5v-5c0-0.828,0.672-1.5,1.5-1.5s1.5,0.672,1.5,1.5v5 C66,35.328,65.328,36,64.5,36z" />
  </g>
  <g>
    <path fill="#6f913d" d="M64.5,77c-0.828,0-1.5-0.672-1.5-1.5v-5c0-0.828,0.672-1.5,1.5-1.5s1.5,0.672,1.5,1.5v5 C66,76.328,65.328,77,64.5,77z" />
  </g>
  <g>
    <path fill="#6f913d" d="M64.5,66c-0.828,0-1.5-0.672-1.5-1.5v-5c0-0.828,0.672-1.5,1.5-1.5s1.5,0.672,1.5,1.5v5 C66,65.328,65.328,66,64.5,66z" />
  </g>
  <g>
    <path fill="#472b29" d="M64.5,47.25c-0.965,0-1.75-0.785-1.75-1.75v-5c0-0.965,0.785-1.75,1.75-1.75s1.75,0.785,1.75,1.75 v2.542c0,0.138-0.112,0.25-0.25,0.25s-0.25-0.112-0.25-0.25V40.5c0-0.689-0.561-1.25-1.25-1.25s-1.25,0.561-1.25,1.25v5 c0,0.689,0.561,1.25,1.25,1.25s1.25-0.561,1.25-1.25c0-0.138,0.112-0.25,0.25-0.25s0.25,0.112,0.25,0.25 C66.25,46.465,65.465,47.25,64.5,47.25z" />
  </g>
  <g>
    <path fill="#472b29" d="M64.5,36.25c-0.965,0-1.75-0.785-1.75-1.75v-3.458c0-0.138,0.112-0.25,0.25-0.25 s0.25,0.112,0.25,0.25V34.5c0,0.689,0.561,1.25,1.25,1.25s1.25-0.561,1.25-1.25v-5c0-0.689-0.561-1.25-1.25-1.25 s-1.25,0.561-1.25,1.25c0,0.138-0.112,0.25-0.25,0.25s-0.25-0.112-0.25-0.25c0-0.965,0.785-1.75,1.75-1.75s1.75,0.785,1.75,1.75v5 C66.25,35.465,65.465,36.25,64.5,36.25z" />
  </g>
  <g>
    <path fill="#472b29" d="M64.5,77.25c-0.965,0-1.75-0.785-1.75-1.75c0-0.138,0.112-0.25,0.25-0.25s0.25,0.112,0.25,0.25 c0,0.689,0.561,1.25,1.25,1.25s1.25-0.561,1.25-1.25v-5c0-0.689-0.561-1.25-1.25-1.25s-1.25,0.561-1.25,1.25v2.667 c0,0.138-0.112,0.25-0.25,0.25s-0.25-0.112-0.25-0.25V70.5c0-0.965,0.785-1.75,1.75-1.75s1.75,0.785,1.75,1.75v5 C66.25,76.465,65.465,77.25,64.5,77.25z" />
  </g>
  <g>
    <path fill="#472b29" d="M64.5,66.25c-0.965,0-1.75-0.785-1.75-1.75c0-0.138,0.112-0.25,0.25-0.25s0.25,0.112,0.25,0.25 c0,0.689,0.561,1.25,1.25,1.25s1.25-0.561,1.25-1.25v-3.417c0-0.138,0.112-0.25,0.25-0.25s0.25,0.112,0.25,0.25V64.5 C66.25,65.465,65.465,66.25,64.5,66.25z" />
  </g>
  <g>
    <path fill="#472b29" d="M63,62.667c-0.138,0-0.25-0.112-0.25-0.25V59.5c0-0.965,0.785-1.75,1.75-1.75s1.75,0.785,1.75,1.75 c0,0.138-0.112,0.25-0.25,0.25s-0.25-0.112-0.25-0.25c0-0.689-0.561-1.25-1.25-1.25s-1.25,0.561-1.25,1.25v2.917 C63.25,62.555,63.138,62.667,63,62.667z" />
  </g>
</svg>